<svg width="21" height="21" viewBox="0 0 21 21" fill="none" xmlns="http://www.w3.org/2000/svg">
<path fill-rule="evenodd" clip-rule="evenodd" d="M2.625 1.75C2.14175 1.75 1.75 2.14175 1.75 2.625V5.25C1.75 5.73325 2.14175 6.125 2.625 6.125H5.25C5.73325 6.125 6.125 5.73325 6.125 5.25V2.625C6.125 2.14175 5.73325 1.75 5.25 1.75H2.625ZM2.625 0H5.25C6.69974 0 7.875 1.17526 7.875 2.625V5.25C7.875 6.69974 6.69974 7.875 5.25 7.875H2.625C1.17526 7.875 0 6.69974 0 5.25V2.625C0 1.17526 1.17526 0 2.625 0ZM12.25 14H18.375C19.8248 14 21 15.1752 21 16.625V18.375C21 19.8248 19.8248 21 18.375 21H12.25C10.8002 21 9.625 19.8248 9.625 18.375V16.625C9.625 15.1752 10.8002 14 12.25 14ZM12.25 15.75C11.7667 15.75 11.375 16.1417 11.375 16.625V18.375C11.375 18.8583 11.7667 19.25 12.25 19.25H18.375C18.8583 19.25 19.25 18.8583 19.25 18.375V16.625C19.25 16.1417 18.8583 15.75 18.375 15.75H12.25ZM2.625 9.625H5.25C6.69974 9.625 7.875 10.8002 7.875 12.25V18.375C7.875 19.8248 6.69974 21 5.25 21H2.625C1.17526 21 0 19.8248 0 18.375V12.25C0 10.8002 1.17526 9.625 2.625 9.625ZM2.625 11.375C2.14175 11.375 1.75 11.7667 1.75 12.25V18.375C1.75 18.8583 2.14175 19.25 2.625 19.25H5.25C5.73325 19.25 6.125 18.8583 6.125 18.375V12.25C6.125 11.7667 5.73325 11.375 5.25 11.375H2.625ZM18.375 0C19.8248 0 21 1.17526 21 2.625V9.625C21 11.0748 19.8248 12.25 18.375 12.25H12.25C10.8002 12.25 9.625 11.0748 9.625 9.625V2.625C9.625 1.17526 10.8002 0 12.25 0H18.375ZM11.375 2.625V9.625C11.375 10.1083 11.7667 10.5 12.25 10.5H18.375C18.8583 10.5 19.25 10.1083 19.25 9.625V2.625C19.25 2.14175 18.8583 1.75 18.375 1.75H12.25C11.7667 1.75 11.375 2.14175 11.375 2.625Z" fill="#B1B7C3"/>
</svg>
