<svg width="18" height="21" viewBox="0 0 18 21" fill="none" xmlns="http://www.w3.org/2000/svg">
<path fill-rule="evenodd" clip-rule="evenodd" d="M9.49997 2.16664H17.8333V4.24997H9.49997V2.16664ZM9.49997 9.4583H17.8333V11.5416H9.49997V9.4583ZM9.49997 16.75H17.8333V18.8333H9.49997V16.75ZM6.26833 0.252197L7.5068 1.20487L3.79428 6.03116L0.443848 3.09953L1.47276 1.92363L3.5708 3.7583L6.26833 0.252197ZM6.26833 7.54386L7.5068 8.49654L3.79428 13.3228L0.443848 10.3912L1.47276 9.2153L3.5708 11.05L6.26833 7.54386ZM6.26833 14.8355L7.5068 15.7882L3.79428 20.6145L0.443848 17.6829L1.47276 16.507L3.5708 18.3416L6.26833 14.8355Z" fill="#5B8EDF"/>
</svg>
