<svg width="71" height="71" viewBox="0 0 71 71" fill="none" xmlns="http://www.w3.org/2000/svg">
<path d="M52.8218 43.0393H48.9212V44.3395H52.8218V43.0393ZM38.269 46.9399V48.2401H42.1696V49.5402H43.4697V44.3395H42.1696V46.9399H38.269ZM38.269 52.1406H40.8694V50.8404H38.269V52.1406ZM40.8694 50.8404H42.1696V49.5402H40.8694V50.8404ZM38.269 44.3395H36.9688V46.9399H38.269V44.3395ZM31.0625 17.75H26.625V39.9375H31.0625V17.75ZM35.5 17.75H33.2812V39.9375H35.5V17.75ZM48.9212 52.1406H52.8218V50.8404H48.9212V52.1406ZM42.1696 43.0393H38.269V44.3395H42.1696V43.0393ZM54.122 50.8404V44.3395H52.8218V50.8404H54.122ZM55.4688 17.75H53.25V39.9375H55.4688V17.75ZM27.619 49.5402H26.3188V50.8404H27.619V49.5402ZM44.375 17.75H39.9375V39.9375H44.375V17.75ZM48.8125 17.75H46.5938V39.9375H48.8125V17.75ZM47.621 50.8404H48.9212V44.3395H47.621V50.8404ZM15.6688 52.1406H22.1697V50.8404H16.969V49.5402H15.6688V52.1406ZM15.6688 45.6397H16.969V44.3395H15.6688V45.6397ZM18.2692 48.2401H20.8696V46.9399H18.2692V48.2401ZM28.9192 46.9399V48.2401H31.5196V46.9399H28.9192ZM16.969 43.0393V44.3395H20.8696V43.0393H16.969ZM17.75 17.75H15.5312V39.9375H17.75V17.75ZM66.5625 8.875H4.4375C1.988 8.875 0 10.863 0 13.3125V57.6875C0 60.137 1.988 62.125 4.4375 62.125H66.5625C69.012 62.125 71 60.137 71 57.6875V13.3125C71 10.863 69.012 8.875 66.5625 8.875ZM66.5625 57.6875H4.4375V13.3125H66.5625V57.6875ZM13.3125 17.75H8.875V53.25H13.3125V17.75ZM16.969 49.5402H18.2692V48.2401H16.969V49.5402ZM32.8197 44.3395H31.5196V46.9399H32.8197V44.3395ZM27.619 43.0393V44.3395H31.5196V43.0393H27.619ZM22.1697 46.9399V44.3395H20.8696V46.9399H22.1697ZM26.3188 45.6397H27.619V44.3395H26.3188V45.6397ZM24.4062 17.75H22.1875V39.9375H24.4062V17.75ZM32.8197 48.2401H31.5196V50.8404H32.8197V48.2401ZM31.5196 52.1406V50.8404H27.619V52.1406H31.5196ZM62.125 17.75H57.6875V53.25H62.125V17.75Z" fill="#666666"/>
</svg>
