<svg width="20" height="20" viewBox="0 0 20 20" fill="none" xmlns="http://www.w3.org/2000/svg">
<path d="M5.3906 19.625C4.71873 19.4688 2.29685 18.5 2.09373 17.1563C1.9531 16.2813 2.29685 15.4219 3.04685 14.7969C3.60935 14.3281 5.0156 13.4375 5.59373 13.1406C5.81248 13.0313 6.12498 12.9063 6.40623 12.7813C7.2031 12.4375 7.5156 12.2812 7.59373 12.1406C7.68748 11.9219 7.68748 11.7656 7.60935 11.3438V11.3125L7.5781 11.2812C7.24998 10.9375 6.4531 9.96875 6.24998 9.375C6.04685 8.78125 5.8281 7.57813 5.81248 7.03125V6.90625H4.18748C4.21873 6.65625 4.3281 6.125 4.49998 5.82812C4.74998 5.39062 5.1406 5.01563 5.2031 4.98438L5.2656 4.95313V4.84375C5.2656 4.48438 5.46873 3.23438 6.37498 2.32813C7.46873 1.23438 8.99998 0.453125 9.99998 0.453125H10.0625C11.0625 0.453125 12.5937 1.25 13.6875 2.32813C14.5937 3.23438 14.7969 4.48438 14.7969 4.84375V4.92188L14.8594 4.95313C14.9219 4.98438 15.3125 5.35938 15.5625 5.79688C15.7344 6.09375 15.8281 6.625 15.875 6.875H14.2344V7C14.2344 7.54688 14 8.75 13.7969 9.34375C13.5937 9.9375 12.7969 10.9063 12.4687 11.25L12.4375 11.2812V11.3125C12.3594 11.7344 12.3437 11.8906 12.4531 12.1094C12.5156 12.2656 12.8281 12.4063 13.6406 12.75C13.9219 12.875 14.2187 13 14.4531 13.1094C15.0469 13.4063 16.4375 14.2969 17 14.7656C17.75 15.3906 18.0937 16.25 17.9531 17.125C17.7344 18.4688 15.3281 19.4375 14.6562 19.5938C14.1562 19.4219 11.4687 19.1875 10.5156 19.1875H10.2344C10.1719 19.1875 10.1094 19.2031 10.0156 19.2031C9.93748 19.2031 9.85935 19.1875 9.79685 19.1875H9.5156C8.5781 19.2188 5.8906 19.4531 5.3906 19.625ZM14.5156 18.8594L14.5625 18.8438C14.7969 18.7969 16.9219 18.3125 17.2187 16.7969C17.375 15.9375 16.375 15.1875 15.8906 14.8438C15.5625 14.5938 15.2812 14.4219 14.9219 14.2344L14.7656 14.1563L13.9531 18.7344L14.0781 18.75C14.2812 18.7813 14.4219 18.8125 14.4687 18.8281L14.5156 18.8594ZM5.12498 14.2344C4.7031 14.4531 4.43748 14.6406 4.15623 14.8438C3.67185 15.2031 2.67185 15.9531 2.8281 16.7969C3.12498 18.3125 5.23435 18.7969 5.48435 18.8438L5.53123 18.8594L5.56248 18.8281C5.60935 18.8125 5.7656 18.7813 5.9531 18.75L6.0781 18.7344L5.2656 14.1563L5.12498 14.2344ZM10.3125 18.4531C11.2031 18.4688 12.0156 18.5156 12.6406 18.5781L12.7656 18.5938L13.4844 13.5625L13.3281 13.4844C13.2031 13.4219 13.0625 13.375 12.9219 13.3125C12.3906 13.0938 11.8437 12.875 11.625 12.1094C11.5937 11.9688 11.5781 11.8281 11.5937 11.6719C11.6094 11.4844 11.6719 11.3281 11.7344 11.125C11.75 11.0469 11.7812 10.9844 11.8125 10.8906C12.1719 10.5781 12.6875 9.82812 12.9531 9.3125L13.125 8.95312C13.25 8.625 13.3594 7.85938 13.4219 7.28125L13.4375 7.14063H6.60935L6.62498 7.28125C6.71873 8.125 6.8281 8.6875 6.92185 8.95312L7.09373 9.3125C7.37498 9.84375 7.8906 10.5938 8.24998 10.9063C8.28123 10.9844 8.29685 11.0625 8.3281 11.125C8.3906 11.3125 8.4531 11.4844 8.46873 11.6719C8.48435 11.8281 8.48435 11.9688 8.43748 12.1094C8.21873 12.875 7.67185 13.0938 7.1406 13.3125C6.99998 13.375 6.85935 13.4219 6.73435 13.4844L6.5781 13.5625L7.29685 18.5938L7.42185 18.5781C8.06248 18.5156 8.85935 18.4688 9.74998 18.4531H10.3125ZM6.03123 5.10938C5.90623 5.17188 5.71873 5.28125 5.5156 5.625C5.40623 5.79688 5.3906 5.9375 5.37498 6.03125L5.35935 6.17188H14.6719L14.6562 6.03125C14.6562 5.9375 14.625 5.8125 14.5312 5.625C14.3281 5.28125 14.125 5.17188 14.0156 5.10938C14.0156 4.65625 14.0312 3.75 13.2031 2.92188C12.125 1.82813 10.9219 1.1875 10.0312 1.1875C8.84373 1.1875 7.6406 2.14063 6.85935 2.92188C6.03123 3.75 6.03123 4.67188 6.03123 5.10938Z" fill="#5B8EDF"/>
</svg>
