<svg width="18" height="18" viewBox="0 0 18 18" fill="none" xmlns="http://www.w3.org/2000/svg">
<path fill-rule="evenodd" clip-rule="evenodd" d="M14.7789 16.7588C15.0414 17.0213 15.3975 17.1688 15.7688 17.1688C16.1401 17.1688 16.4962 17.0213 16.7588 16.7588C17.0213 16.4962 17.1688 16.1401 17.1688 15.7688C17.1688 15.3975 17.0213 15.0414 16.7588 14.7789L10.8191 8.83919L16.7588 2.89949C17.0213 2.63694 17.1688 2.28084 17.1688 1.90954C17.1688 1.53824 17.0213 1.18214 16.7588 0.919592C16.4962 0.657041 16.1401 0.509541 15.7688 0.509541C15.3975 0.509541 15.0414 0.657041 14.7789 0.919592L8.83919 6.85929L2.89949 0.919592C2.63694 0.657041 2.28085 0.509542 1.90954 0.509542C1.53824 0.509542 1.18215 0.657041 0.919596 0.919592C0.657045 1.18214 0.509545 1.53824 0.509545 1.90954C0.509545 2.28084 0.657045 2.63694 0.919596 2.89949L6.85929 8.83919L0.919596 14.7789C0.657045 15.0414 0.509545 15.3975 0.509545 15.7688C0.509545 16.1401 0.657045 16.4962 0.919596 16.7588C1.18215 17.0213 1.53824 17.1688 1.90954 17.1688C2.28085 17.1688 2.63694 17.0213 2.89949 16.7588L8.83919 10.8191L14.7789 16.7588Z" fill="#CCCCCC"/>
</svg>
