<svg width="19" height="19" viewBox="0 0 19 19" fill="none" xmlns="http://www.w3.org/2000/svg">
<path d="M11.0834 16.2292H7.91678C7.75994 16.2271 7.61011 16.1639 7.4992 16.053C7.38829 15.9421 7.32508 15.7923 7.32303 15.6354V9.50001L3.08761 3.71293C3.02067 3.6259 2.9799 3.5216 2.97009 3.41224C2.96027 3.30288 2.98181 3.19298 3.03219 3.09543C3.08266 2.99815 3.15873 2.9165 3.25221 2.8593C3.34569 2.80209 3.45302 2.77151 3.56261 2.77084H15.4376C15.5472 2.77151 15.6545 2.80209 15.748 2.8593C15.8414 2.9165 15.9175 2.99815 15.968 3.09543C16.0184 3.19298 16.0399 3.30288 16.0301 3.41224C16.0203 3.5216 15.9796 3.6259 15.9126 3.71293L11.6772 9.50001V15.6354C11.6751 15.7923 11.612 15.9421 11.501 16.053C11.3901 16.1639 11.2403 16.2271 11.0834 16.2292ZM8.51053 15.0417H10.4897V9.30209C10.4891 9.17598 10.5309 9.05327 10.6084 8.95376L14.2501 3.95834H4.75011L8.40761 8.95376C8.48519 9.05327 8.52699 9.17598 8.52636 9.30209L8.51053 15.0417Z" fill="#266FFC"/>
</svg>
