<svg width="13" height="15" viewBox="0 0 13 15" fill="none" xmlns="http://www.w3.org/2000/svg">
<path fill-rule="evenodd" clip-rule="evenodd" d="M6.43319 1.41028H12.3529V2.94498H6.43319V1.41028ZM6.43319 6.78173H12.3529V8.31643H6.43319V6.78173ZM6.43319 12.1532H12.3529V13.6879H6.43319V12.1532ZM4.13753 0L5.01731 0.701792L2.38004 4.2571L0 2.09751L0.730909 1.23127L2.2213 2.58279L4.13753 0ZM4.13753 5.37145L5.01731 6.07324L2.38004 9.62855L0 7.46895L0.730909 6.60272L2.2213 7.95424L4.13753 5.37145ZM4.13753 10.7429L5.01731 11.4447L2.38004 15L0 12.8404L0.730909 11.9742L2.2213 13.3257L4.13753 10.7429Z" fill="#5B8EDF"/>
</svg>
