<svg width="63" height="63" viewBox="0 0 63 63" fill="none" xmlns="http://www.w3.org/2000/svg">
<g clip-path="url(#clip0_125_486)">
<path d="M61.0312 13.7812H1.96875C1.4466 13.7812 0.945846 13.9887 0.576634 14.3579C0.207421 14.7271 0 15.2279 0 15.75L0 47.25C0 47.7721 0.207421 48.2729 0.576634 48.6421C0.945846 49.0113 1.4466 49.2188 1.96875 49.2188H61.0312C61.5534 49.2188 62.0542 49.0113 62.4234 48.6421C62.7926 48.2729 63 47.7721 63 47.25V15.75C63 15.2279 62.7926 14.7271 62.4234 14.3579C62.0542 13.9887 61.5534 13.7812 61.0312 13.7812ZM49.3959 45.2812H13.6041C13.1937 42.8667 12.043 40.6394 10.3112 38.9075C8.57938 37.1757 6.35206 36.025 3.9375 35.6147V27.3853C6.35206 26.975 8.57938 25.8243 10.3112 24.0925C12.043 22.3606 13.1937 20.1333 13.6041 17.7188H49.3959C49.8063 20.1333 50.957 22.3606 52.6888 24.0925C54.4206 25.8243 56.6479 26.975 59.0625 27.3853V35.6147C56.6479 36.025 54.4206 37.1757 52.6888 38.9075C50.957 40.6394 49.8063 42.8667 49.3959 45.2812ZM59.0625 23.3494C57.7083 22.9959 56.4727 22.2878 55.4831 21.2982C54.4934 20.3085 53.7854 19.073 53.4319 17.7188H59.0625V23.3494ZM9.56813 17.7188C9.21462 19.073 8.50659 20.3085 7.51692 21.2982C6.52726 22.2878 5.29172 22.9959 3.9375 23.3494V17.7188H9.56813ZM3.9375 39.6506C5.29172 40.0041 6.52726 40.7122 7.51692 41.7018C8.50659 42.6915 9.21462 43.927 9.56813 45.2812H3.9375V39.6506ZM53.4319 45.2812C53.7854 43.927 54.4934 42.6915 55.4831 41.7018C56.4727 40.7122 57.7083 40.0041 59.0625 39.6506V45.2812H53.4319Z" fill="#666666"/>
<path d="M14.7851 1.39781C14.5609 1.2682 14.3133 1.18409 14.0566 1.15031C13.7998 1.11653 13.5389 1.13373 13.2889 1.20093C12.7845 1.33196 12.3526 1.65763 12.0879 2.10656L8.15042 8.85937C7.88935 9.31363 7.81942 9.85301 7.95603 10.3588C8.09264 10.8646 8.42459 11.2955 8.87886 11.5566C9.33312 11.8176 9.87249 11.8876 10.3783 11.7509C10.8841 11.6143 11.315 11.2824 11.576 10.8281L14.5292 5.78812L24.5107 11.5566C24.965 11.8176 25.5044 11.8876 26.0102 11.7509C26.516 11.6143 26.9468 11.2824 27.2079 10.8281C27.469 10.3739 27.5389 9.83448 27.4023 9.32866C27.2657 8.82284 26.9337 8.392 26.4795 8.13093L14.7851 1.39781Z" fill="#666666"/>
<path d="M48.2145 61.6022C48.5127 61.7791 48.8522 61.8742 49.1989 61.8778C49.3683 61.9064 49.5413 61.9064 49.7108 61.8778C50.2152 61.7468 50.647 61.4211 50.9117 60.9722L54.8492 54.2194C55.1103 53.7651 55.1802 53.2257 55.0436 52.7199C54.907 52.2141 54.575 51.7833 54.1208 51.5222C53.6665 51.2611 53.1271 51.1912 52.6213 51.3278C52.1155 51.4644 51.6847 51.7964 51.4236 52.2506L48.5098 57.2906L38.5283 51.5222C38.074 51.2611 37.5346 51.1912 37.0288 51.3278C36.523 51.4644 36.0922 51.7964 35.8311 52.2506C35.57 52.7049 35.5001 53.2443 35.6367 53.7501C35.7733 54.2559 36.1053 54.6867 36.5595 54.9478L48.2145 61.6022Z" fill="#666666"/>
<path d="M31.5 19.6875C29.1637 19.6875 26.8799 20.3803 24.9373 21.6783C22.9948 22.9762 21.4807 24.8211 20.5867 26.9796C19.6926 29.138 19.4587 31.5131 19.9145 33.8045C20.3703 36.0959 21.4953 38.2007 23.1473 39.8527C24.7993 41.5047 26.9041 42.6297 29.1955 43.0855C31.4869 43.5413 33.862 43.3074 36.0205 42.4133C38.1789 41.5193 40.0238 40.0052 41.3217 38.0627C42.6197 36.1201 43.3125 33.8363 43.3125 31.5C43.3125 28.3671 42.068 25.3626 39.8527 23.1473C37.6374 20.932 34.6329 19.6875 31.5 19.6875ZM31.5 39.375C29.9425 39.375 28.4199 38.9131 27.1249 38.0478C25.8299 37.1825 24.8205 35.9526 24.2245 34.5136C23.6284 33.0747 23.4725 31.4913 23.7763 29.9637C24.0802 28.4361 24.8302 27.0329 25.9315 25.9315C27.0329 24.8302 28.4361 24.0802 29.9637 23.7763C31.4913 23.4725 33.0747 23.6284 34.5136 24.2244C35.9526 24.8205 37.1825 25.8298 38.0478 27.1249C38.9131 28.4199 39.375 29.9425 39.375 31.5C39.375 33.5886 38.5453 35.5916 37.0685 37.0685C35.5916 38.5453 33.5886 39.375 31.5 39.375Z" fill="#666666"/>
</g>
<defs>
<clipPath id="clip0_125_486">
<rect width="63" height="63" fill="white"/>
</clipPath>
</defs>
</svg>
