<svg width="75" height="75" viewBox="0 0 75 75" fill="none" xmlns="http://www.w3.org/2000/svg">
<path d="M20.2149 73.5938C17.6953 73.0078 8.6133 69.375 7.85158 64.3359C7.32423 61.0547 8.6133 57.832 11.4258 55.4883C13.5352 53.7305 18.8086 50.3906 20.9766 49.2773C21.7969 48.8672 22.9688 48.3984 24.0235 47.9297C27.0117 46.6406 28.1836 46.0547 28.4766 45.5273C28.8281 44.707 28.8281 44.1211 28.5352 42.5391V42.4219L28.418 42.3047C27.1875 41.0156 24.1992 37.3828 23.4375 35.1562C22.6758 32.9297 21.8555 28.418 21.7969 26.3672V25.8984H15.7031C15.8203 24.9609 16.2305 22.9687 16.875 21.8555C17.8125 20.2148 19.2774 18.8086 19.5117 18.6914L19.7461 18.5742V18.1641C19.7461 16.8164 20.5078 12.1289 23.9063 8.73047C28.0078 4.62891 33.75 1.69922 37.5 1.69922H37.7344C41.4844 1.69922 47.2266 4.6875 51.3281 8.73047C54.7266 12.1289 55.4883 16.8164 55.4883 18.1641V18.457L55.7227 18.5742C55.957 18.6914 57.4219 20.0977 58.3594 21.7383C59.0039 22.8516 59.3555 24.8438 59.5313 25.7812H53.3789V26.25C53.3789 28.3008 52.5 32.8125 51.7383 35.0391C50.9766 37.2656 47.9883 40.8984 46.7578 42.1875L46.6406 42.3047V42.4219C46.3477 44.0039 46.2891 44.5898 46.6992 45.4102C46.9336 45.9961 48.1055 46.5234 51.1524 47.8125C52.207 48.2812 53.3203 48.75 54.1992 49.1602C56.4258 50.2734 61.6406 53.6133 63.75 55.3711C66.5625 57.7148 67.8516 60.9375 67.3242 64.2188C66.5039 69.2578 57.4805 72.8906 54.961 73.4766C53.086 72.832 43.0078 71.9531 39.4336 71.9531H38.3789C38.1445 71.9531 37.9102 72.0117 37.5586 72.0117C37.2656 72.0117 36.9727 71.9531 36.7383 71.9531H35.6836C32.168 72.0703 22.0899 72.9492 20.2149 73.5938ZM54.4336 70.7227L54.6094 70.6641C55.4883 70.4883 63.457 68.6719 64.5703 62.9883C65.1563 59.7656 61.4063 56.9531 59.5899 55.6641C58.3594 54.7266 57.3047 54.082 55.957 53.3789L55.3711 53.0859L52.3242 70.2539L52.793 70.3125C53.5547 70.4297 54.082 70.5469 54.2578 70.6055L54.4336 70.7227ZM19.2188 53.3789C17.6367 54.1992 16.6406 54.9023 15.586 55.6641C13.7695 57.0117 10.0195 59.8242 10.6055 62.9883C11.7188 68.6719 19.6289 70.4883 20.5664 70.6641L20.7422 70.7227L20.8594 70.6055C21.0352 70.5469 21.6211 70.4297 22.3242 70.3125L22.793 70.2539L19.7461 53.0859L19.2188 53.3789ZM38.6719 69.1992C42.0117 69.2578 45.0586 69.4336 47.4024 69.668L47.8711 69.7266L50.5664 50.8594L49.9805 50.5664C49.5117 50.332 48.9844 50.1562 48.457 49.9219C46.4649 49.1016 44.4141 48.2812 43.5938 45.4102C43.4766 44.8828 43.418 44.3555 43.4766 43.7695C43.5352 43.0664 43.7695 42.4805 44.0039 41.7187C44.0625 41.4258 44.1797 41.1914 44.2969 40.8398C45.6445 39.668 47.5781 36.8555 48.5742 34.9219L49.2188 33.5742C49.6875 32.3437 50.0977 29.4727 50.332 27.3047L50.3906 26.7773H24.7852L24.8438 27.3047C25.1953 30.4687 25.6055 32.5781 25.957 33.5742L26.6016 34.9219C27.6563 36.9141 29.5899 39.7266 30.9375 40.8984C31.0547 41.1914 31.1133 41.4844 31.2305 41.7187C31.4649 42.4219 31.6992 43.0664 31.7578 43.7695C31.8164 44.3555 31.8164 44.8828 31.6406 45.4102C30.8203 48.2812 28.7695 49.1016 26.7774 49.9219C26.25 50.1562 25.7227 50.332 25.2539 50.5664L24.668 50.8594L27.3633 69.7266L27.832 69.668C30.2344 69.4336 33.2227 69.2578 36.5625 69.1992H38.6719ZM22.6172 19.1602C22.1485 19.3945 21.4453 19.8047 20.6836 21.0938C20.2735 21.7383 20.2149 22.2656 20.1563 22.6172L20.0977 23.1445H55.0195L54.961 22.6172C54.961 22.2656 54.8438 21.7969 54.4922 21.0938C53.7305 19.8047 52.9688 19.3945 52.5586 19.1602C52.5586 17.4609 52.6172 14.0625 49.5117 10.957C45.4688 6.85547 40.957 4.45312 37.6172 4.45312C33.1641 4.45312 28.6524 8.02734 25.7227 10.957C22.6172 14.0625 22.6172 17.5195 22.6172 19.1602Z" fill="#666666"/>
</svg>
