<svg width="10" height="18" viewBox="0 0 10 18" fill="none" xmlns="http://www.w3.org/2000/svg">
<path d="M8.50082 17.9983C8.30377 17.9994 8.10832 17.9581 7.92627 17.8768C7.74423 17.7955 7.57919 17.676 7.44055 17.5253L0.43879 9.99969C0.157819 9.69738 0 9.28756 0 8.8601C0 8.43287 0.157819 8.02305 0.43879 7.72052L7.44055 0.259509C7.72262 0.0630056 8.05771 -0.0260532 8.39239 0.00660782C8.72708 0.0392473 9.04196 0.191737 9.28642 0.439608C9.53088 0.687478 9.69072 1.01637 9.74053 1.3736C9.79035 1.73083 9.72713 2.09566 9.56109 2.40967L3.55956 8.8601L9.56109 15.3106C9.84216 15.6131 10 16.0229 10 16.4502C10 16.8776 9.84216 17.2875 9.56109 17.5898C9.27161 17.8708 8.89052 18.0177 8.50082 17.9983Z" fill="black"/>
</svg>
