<svg width="29" height="32" viewBox="0 0 29 32" fill="none" xmlns="http://www.w3.org/2000/svg">
<path d="M12.1388 30.1592C13.5363 30.1592 14.6692 29.0263 14.6692 27.6288C14.6692 26.2313 13.5363 25.0984 12.1388 25.0984C10.7413 25.0984 9.6084 26.2313 9.6084 27.6288C9.6084 29.0263 10.7413 30.1592 12.1388 30.1592Z" stroke="#418BFC" stroke-width="2"/>
<path d="M24.1583 30.1592C25.5558 30.1592 26.6887 29.0263 26.6887 27.6288C26.6887 26.2313 25.5558 25.0984 24.1583 25.0984C22.7608 25.0984 21.6279 26.2313 21.6279 27.6288C21.6279 29.0263 22.7608 30.1592 24.1583 30.1592Z" stroke="#418BFC" stroke-width="2"/>
<path d="M1.38477 1.69226H4.75863L10.6704 20.6702H24.1583" stroke="#418BFC" stroke-width="2" stroke-linecap="round" stroke-linejoin="round"/>
<path d="M9.6301 16.2419L6.4458 6.12036H27.1269C27.6912 6.12036 28.0895 6.68439 27.9111 7.23055L25.1554 15.6652C25.0428 16.0097 24.7269 16.2419 24.371 16.2419H9.6301Z" stroke="#418BFC" stroke-width="2" stroke-linecap="round" stroke-linejoin="round"/>
</svg>
