<svg width="28" height="29" viewBox="0 0 28 29" fill="none" xmlns="http://www.w3.org/2000/svg">
<path fill-rule="evenodd" clip-rule="evenodd" d="M5.96642 28.1819C7.06835 27.7679 8.00787 27.2322 8.74796 26.7299C10.3711 27.381 12.1446 27.7392 14 27.7392C21.732 27.7392 28 21.5295 28 13.8696C28 6.20963 21.732 0 14 0C6.26805 0 0 6.20963 0 13.8696C0 16.7429 0.883272 19.4153 2.3954 21.6304C2.49136 23.4619 1.5204 25.1168 0.512655 26.5812C-0.369982 27.8636 -0.148527 28.8972 1.49724 28.9896C2.23491 29.0309 3.83053 28.9842 5.96642 28.1819ZM25.4545 13.8696C25.4545 7.60235 20.3262 2.52174 14 2.52174C7.67378 2.52174 2.54546 7.60235 2.54546 13.8696C2.54546 16.3287 3.33353 18.6018 4.67346 20.4592C5.26629 21.2813 4.96135 22.8215 4.75796 23.7058C4.56056 24.5641 4.13229 25.476 3.70924 26.2416C4.11422 26.1449 4.56769 26.0103 5.06393 25.8239C6.20595 25.3948 7.14967 24.7918 7.81531 24.2857C8.19305 23.9984 8.701 23.9442 9.13182 24.1449C10.6077 24.8325 12.2567 25.2174 14 25.2174C20.3262 25.2174 25.4545 20.1369 25.4545 13.8696ZM20.3636 15.7609C19.3093 15.7609 18.4545 14.9141 18.4545 13.8696C18.4545 12.8251 19.3093 11.9783 20.3636 11.9783C21.418 11.9783 22.2727 12.8251 22.2727 13.8696C22.2727 14.9141 21.418 15.7609 20.3636 15.7609ZM12.0909 13.8696C12.0909 14.9141 12.9457 15.7609 14 15.7609C15.0543 15.7609 15.9091 14.9141 15.9091 13.8696C15.9091 12.8251 15.0543 11.9783 14 11.9783C12.9457 11.9783 12.0909 12.8251 12.0909 13.8696ZM7.63636 15.7609C6.58204 15.7609 5.72727 14.9141 5.72727 13.8696C5.72727 12.8251 6.58204 11.9783 7.63636 11.9783C8.69069 11.9783 9.54545 12.8251 9.54545 13.8696C9.54545 14.9141 8.69069 15.7609 7.63636 15.7609Z" fill="#418BFC"/>
</svg>
