<svg width="16" height="16" viewBox="0 0 16 16" fill="none" xmlns="http://www.w3.org/2000/svg">
<g clip-path="url(#clip0_3_863)">
<path fill-rule="evenodd" clip-rule="evenodd" d="M3.79197 15.5674C4.36917 15.3485 4.86131 15.0652 5.24897 14.7996C6.09917 15.1439 7.02817 15.3333 8.00004 15.3333C12.0501 15.3333 15.3334 12.05 15.3334 7.99996C15.3334 3.94987 12.0501 0.666626 8.00004 0.666626C3.94997 0.666626 0.666707 3.94987 0.666707 7.99996C0.666707 9.51916 1.12937 10.9322 1.92144 12.1034C1.97171 13.0718 1.46311 13.9468 0.93524 14.721C0.472907 15.3991 0.588906 15.9456 1.45097 15.9944C1.83737 16.0163 2.67317 15.9916 3.79197 15.5674ZM14 7.99996C14 4.68625 11.3137 1.99996 8.00004 1.99996C4.68631 1.99996 2.00004 4.68625 2.00004 7.99996C2.00004 9.30016 2.41284 10.502 3.11471 11.4841C3.42524 11.9188 3.26551 12.7332 3.15897 13.2007C3.05557 13.6545 2.83124 14.1367 2.60964 14.5415C2.82177 14.4904 3.05931 14.4192 3.31924 14.3206C3.91744 14.0938 4.41177 13.7749 4.76044 13.5073C4.95831 13.3554 5.22437 13.3268 5.45004 13.4329C6.22311 13.7964 7.08691 14 8.00004 14C11.3137 14 14 11.3137 14 7.99996ZM11.3334 8.99996C10.7811 8.99996 10.3334 8.55223 10.3334 7.99996C10.3334 7.44769 10.7811 6.99996 11.3334 6.99996C11.8857 6.99996 12.3334 7.44769 12.3334 7.99996C12.3334 8.55223 11.8857 8.99996 11.3334 8.99996ZM7.00004 7.99996C7.00004 8.55223 7.44777 8.99996 8.00004 8.99996C8.55231 8.99996 9.00004 8.55223 9.00004 7.99996C9.00004 7.44769 8.55231 6.99996 8.00004 6.99996C7.44777 6.99996 7.00004 7.44769 7.00004 7.99996ZM4.66671 8.99996C4.11444 8.99996 3.66671 8.55223 3.66671 7.99996C3.66671 7.44769 4.11444 6.99996 4.66671 6.99996C5.21897 6.99996 5.66671 7.44769 5.66671 7.99996C5.66671 8.55223 5.21897 8.99996 4.66671 8.99996Z" fill="#B1B7C3"/>
</g>
<defs>
<clipPath id="clip0_3_863">
<rect width="16" height="16" fill="white" transform="matrix(-1 0 0 1 16 0)"/>
</clipPath>
</defs>
</svg>
