<svg width="67" height="48" viewBox="0 0 67 48" fill="none" xmlns="http://www.w3.org/2000/svg">
<path d="M54.1594 16.7952C42.3909 14.8306 35.4418 25.7193 28.9418 33.6402C25.7226 37.5483 21.4787 41.8954 16.2101 42.3134C11.085 42.7105 6.43123 38.9278 5.65247 33.7655C4.87371 28.457 8.48231 22.8561 13.7099 22.3754C20.2286 21.7901 22.1772 25.2386 25.2923 27.9556L28.8804 23.7338C28.8599 23.713 28.8599 23.713 28.8599 23.713L29.3312 23.1277C24.0626 19.533 23.5913 10.3164 28.3475 6.07376C33.1038 1.81027 40.198 2.87616 44.5034 7.22324C40.7513 -1.70083 28.7164 -2.05612 22.7101 4.50632C19.4703 8.01742 18.3022 12.7616 18.958 17.2132C17.503 16.7534 16.0052 16.5026 14.4682 16.6071C9.03564 16.9206 4.05396 20.2644 1.59301 25.2177C-3.2657 35.1031 3.5604 47.2249 14.3452 47.9563C25.7431 48.7713 32.1816 38.0081 38.5978 30.2962C41.858 26.3672 46.2044 22.2291 51.5754 22.2082C56.7211 22.2082 61.1494 26.3254 61.4978 31.571C61.8667 36.5034 58.4852 41.1013 53.729 42.1462C49.1367 43.1494 44.9953 39.4712 41.7555 36.6288L38.1674 40.8505C41.9195 44.1526 46.6552 47.9563 51.8624 47.9563C57.3154 47.9563 62.4832 44.7168 65.1064 39.9101C70.2111 30.568 64.4711 18.509 54.1594 16.7952Z" fill="#4C6A9A"/>
</svg>
