<svg width="208" height="43" viewBox="0 0 208 43" fill="none" xmlns="http://www.w3.org/2000/svg">
<path d="M160.729 9.85051C153.838 8.69829 149.769 15.0846 145.963 19.7303C144.078 22.0224 141.593 24.572 138.508 24.8172C135.507 25.0501 132.782 22.8315 132.326 19.8038C131.87 16.6903 133.983 13.4053 137.044 13.1234C140.861 12.7801 142.002 14.8027 143.826 16.3962L145.927 13.9201C145.915 13.9079 145.915 13.9079 145.915 13.9079L146.191 13.5646C143.106 11.4563 142.83 6.05063 145.615 3.56231C148.4 1.06174 152.554 1.68689 155.075 4.23649C152.878 -0.997549 145.831 -1.20593 142.314 2.64299C140.417 4.70228 139.733 7.48478 140.117 10.0957C139.265 9.826 138.388 9.67891 137.488 9.74019C134.307 9.92406 131.39 11.8853 129.949 14.7904C127.104 20.5883 131.101 27.6978 137.416 28.1268C144.09 28.6048 147.86 22.2921 151.617 17.769C153.526 15.4646 156.071 13.0376 159.216 13.0253C162.229 13.0253 164.822 15.4401 165.026 18.5167C165.242 21.4096 163.262 24.1063 160.477 24.7191C157.788 25.3075 155.363 23.1502 153.466 21.4831L151.365 23.9592C153.562 25.8959 156.335 28.1268 159.384 28.1268C162.577 28.1268 165.603 26.2268 167.139 23.4076C170.128 17.9284 166.767 10.8557 160.729 9.85051Z" fill="#4C6A9A"/>
<path d="M11.8966 16.4085C11.8966 16.2123 11.8966 16.004 11.8966 15.7711C11.8846 15.5382 11.8605 15.3053 11.8125 15.0601C11.7645 14.8272 11.6805 14.5943 11.5844 14.3737C11.4764 14.1531 11.3444 13.9692 11.1403 13.8098V13.5769H15.8941V13.8098C15.714 13.9692 15.582 14.1531 15.4739 14.3737C15.3779 14.5943 15.3059 14.8272 15.2579 15.0601C15.2098 15.3053 15.1858 15.5382 15.1738 15.7711C15.1738 16.004 15.1738 16.2123 15.1738 16.4085V23.4321C15.1738 23.6283 15.1738 23.9102 15.1738 24.2902C15.1858 24.6702 15.2098 25.0747 15.2579 25.4914C15.3059 25.9082 15.3779 26.3127 15.4739 26.6804C15.582 27.0482 15.714 27.3056 15.8941 27.4649V27.6978H11.1403V27.4649C11.3444 27.3056 11.4764 27.0482 11.5844 26.6804C11.6805 26.3127 11.7645 25.9082 11.8125 25.4914C11.8605 25.0747 11.8846 24.6702 11.8966 24.2902C11.8966 23.9102 11.8966 23.6283 11.8966 23.4321V22.2064H4.02154V23.4321C4.02154 23.6283 4.03355 23.9102 4.03355 24.2902C4.04555 24.6702 4.06956 25.0747 4.11758 25.4914C4.1656 25.9082 4.23763 26.3127 4.33366 26.6804C4.4297 27.0482 4.57376 27.3056 4.76583 27.4649V27.6978H0V27.4649C0.192073 27.3056 0.336128 27.0482 0.432165 26.6804C0.540207 26.3127 0.612234 25.9082 0.660253 25.4914C0.708271 25.0747 0.744285 24.6702 0.744285 24.2902C0.75629 23.9102 0.75629 23.6283 0.75629 23.4321V16.4085C0.75629 16.2123 0.75629 16.004 0.744285 15.7711C0.744285 15.5382 0.708271 15.3053 0.660253 15.0601C0.612234 14.8272 0.540207 14.5943 0.432165 14.3737C0.336128 14.1531 0.192073 13.9692 0 13.8098V13.5769H4.76583V13.8098C4.57376 13.9692 4.4297 14.1531 4.33366 14.3737C4.23763 14.5943 4.1656 14.8272 4.11758 15.0601C4.06956 15.3053 4.04555 15.5382 4.03355 15.7711C4.03355 16.004 4.02154 16.2123 4.02154 16.4085V19.0684H11.8966V16.4085Z" fill="#4C6A9A"/>
<path d="M55.5689 24.4128C55.1728 24.6824 54.6926 24.805 54.1284 24.805H48.2941V21.7651H54.1524C54.8726 21.7651 55.3888 21.8999 55.689 22.1818C56.0131 22.4515 56.1571 22.807 56.1571 23.236C56.1571 23.7631 55.9651 24.1676 55.5689 24.4128ZM59.1343 21.5444C58.9542 21.0174 58.6541 20.5638 58.2339 20.1593C57.8258 19.7671 57.2976 19.4606 56.6613 19.2277C56.0251 19.0071 55.2568 18.8968 54.3565 18.8968H48.2941V16.5065H53.4801C53.9603 16.5065 54.4405 16.531 54.9207 16.5556C55.4009 16.5923 55.857 16.6291 56.2892 16.7027C56.7094 16.7639 57.0935 16.862 57.4416 16.9723C57.7898 17.0949 58.0779 17.2297 58.306 17.4013L58.474 17.242L57.4176 13.5769H44.5247V13.8098C44.7768 14.0673 44.9208 14.3124 44.9688 14.533C45.0169 14.7659 45.0289 15.0724 45.0289 15.4646V23.4321C45.0289 23.6283 45.0289 23.9102 45.0169 24.2902C45.0169 24.6702 44.9929 25.0747 44.9448 25.4914C44.8968 25.9082 44.8248 26.3127 44.7288 26.6804C44.6327 27.0482 44.4887 27.3056 44.3086 27.4649V27.6978H54.3324C55.2208 27.6978 55.9891 27.5875 56.6253 27.3669C57.2616 27.1462 57.7898 26.8398 58.2099 26.4475C58.6301 26.0553 58.9302 25.5772 59.1343 25.0379C59.3264 24.4986 59.4224 23.9102 59.4224 23.2728C59.4224 22.6476 59.3384 22.0715 59.1343 21.5444Z" fill="#4C6A9A"/>
<path d="M87.4534 17.6341C87.9216 16.7148 88.5458 15.9425 89.3261 15.3051C90.1184 14.6677 91.0308 14.1897 92.0752 13.871C93.1196 13.5523 94.212 13.3807 95.3644 13.3807C96.1687 13.3807 96.901 13.4542 97.5613 13.5891C98.2215 13.7239 98.8217 13.8955 99.3499 14.0794C99.8901 14.2755 100.346 14.4839 100.73 14.68C101.114 14.8884 101.426 15.06 101.654 15.2071L100.658 18.9089H100.478C99.7581 17.9773 98.8818 17.3154 97.8614 16.9109C96.853 16.4941 95.7966 16.298 94.7042 16.298C94.1399 16.298 93.5637 16.3838 92.9995 16.5554C92.4353 16.727 91.9311 16.9967 91.4869 17.3522C91.0308 17.7076 90.6706 18.1612 90.3945 18.7005C90.1184 19.2399 89.9744 19.8895 89.9744 20.6372C89.9744 21.3727 90.1184 22.0101 90.4065 22.5494C90.6826 23.101 91.0668 23.5423 91.535 23.8978C92.0151 24.241 92.5553 24.4984 93.1796 24.67C93.8038 24.8416 94.4521 24.9152 95.1363 24.9152C95.7486 24.9152 96.3488 24.8539 96.949 24.7313C97.5493 24.5965 98.1255 24.4126 98.6777 24.192C99.2299 23.9468 99.7341 23.6649 100.202 23.3339C100.67 22.9907 101.078 22.623 101.426 22.2062L101.594 22.2675L102.027 25.6997C101.306 26.1532 98.8938 27.2932 97.9694 27.5261C97.0451 27.7712 96.0847 27.8938 95.1003 27.8938C93.9959 27.8938 92.9395 27.7344 91.9431 27.428C90.9347 27.1338 90.0464 26.6803 89.2781 26.0797C88.5098 25.4913 87.8976 24.7436 87.4414 23.861C86.9732 22.9785 86.7451 21.9488 86.7451 20.7721C86.7451 19.5953 86.9852 18.5534 87.4534 17.6341Z" fill="#4C6A9A"/>
<path d="M115.796 17.0459H115.724L113.407 22.2064H118.137L115.796 17.0459ZM107.38 27.4649C107.585 27.3056 107.813 27.0482 108.041 26.6804C108.269 26.3127 108.509 25.9082 108.725 25.4914C108.941 25.0747 109.145 24.6702 109.325 24.2902L109.721 23.4321L112.819 16.4085C112.903 16.2123 112.999 16.004 113.095 15.7588C113.191 15.5259 113.263 15.2808 113.323 15.0601C113.371 14.815 113.395 14.5943 113.371 14.3737C113.359 14.1531 113.275 13.9692 113.143 13.8098V13.5769H118.053V13.8098C117.957 13.9814 117.945 14.2266 118.041 14.533C118.125 14.8517 118.269 15.2195 118.461 15.6362L122.038 23.4321L122.446 24.2902C122.638 24.6702 122.842 25.0747 123.058 25.4914C123.287 25.9082 123.503 26.3127 123.719 26.6804C123.947 27.0482 124.139 27.3056 124.319 27.4649V27.6978H119.757V27.4649C119.877 27.3056 119.937 27.1217 119.937 26.9133C119.937 26.6927 119.901 26.4843 119.841 26.2514C119.781 26.0308 119.697 25.7979 119.589 25.565L119.313 24.9398L119.229 24.9643H112.53L112.47 24.9398L112.182 25.565C112.086 25.7979 112.002 26.0308 111.93 26.2514C111.858 26.4843 111.822 26.6927 111.822 26.9133C111.81 27.1217 111.87 27.3056 111.978 27.4649V27.6978H107.38V27.4649Z" fill="#4C6A9A"/>
<path d="M28.139 24.8663V21.3974H33.5891L33.7571 18.7129H28.139V16.3717L36.05 16.384L37.0344 13.5769H24.1895V13.8098C24.3575 13.9692 24.4896 14.1531 24.5856 14.3737C24.6816 14.5943 24.7417 14.8272 24.7897 15.0601C24.8377 15.3053 24.8617 15.5382 24.8737 15.7711C24.8737 16.004 24.8737 16.2123 24.8737 16.4085V23.4321C24.8737 23.616 24.8737 23.9102 24.8737 24.2902C24.8617 24.6702 24.8377 25.0747 24.7897 25.4914C24.7417 25.9082 24.6816 26.3127 24.5856 26.6804C24.4896 27.0482 24.3575 27.3056 24.1895 27.4649V27.6978H37.0344L36.05 24.8663H28.139Z" fill="#4C6A9A"/>
<path d="M71.4515 24.8663V21.3974H76.8895L77.0695 18.7129H71.4515V16.3717L79.3624 16.384L80.3469 13.5769H67.502V13.8098C67.67 13.9692 67.8021 14.1531 67.8981 14.3737C67.9941 14.5943 68.0541 14.8272 68.1021 15.0601C68.1501 15.3053 68.1742 15.5382 68.1742 15.7711C68.1862 16.004 68.1861 16.2123 68.1861 16.4085V23.4321C68.1861 23.616 68.1862 23.9102 68.1742 24.2902C68.1742 24.6702 68.1501 25.0747 68.1021 25.4914C68.0541 25.9082 67.9941 26.3127 67.8981 26.6804C67.8021 27.0482 67.67 27.3056 67.502 27.4649V27.6978H80.3469L79.3624 24.8663H71.4515Z" fill="#4C6A9A"/>
<path d="M173.982 27.6978V27.4649C174.138 27.3301 174.246 27.134 174.342 26.8765C174.426 26.6069 174.498 26.3127 174.546 25.9817C174.606 25.6508 174.642 25.3198 174.666 24.9889C174.678 24.6579 174.69 24.3515 174.702 24.0818C174.702 23.7999 174.714 23.5792 174.714 23.4321V16.4085C174.714 16.1511 174.702 15.8446 174.678 15.5382C174.654 15.2195 174.594 14.9008 174.498 14.5943C174.39 14.2879 174.222 14.0305 173.982 13.8098V13.5769H183.058C184.126 13.5769 185.062 13.7608 185.843 14.104C186.623 14.435 187.235 14.9375 187.655 15.5872C188.087 16.2369 188.304 17.0214 188.316 17.9407C188.316 18.7497 188.135 19.4606 187.775 20.0858C187.415 20.7109 186.839 21.2012 186.059 21.5444C185.29 21.8999 184.282 22.0838 183.034 22.096H177.968V19.2032H183.166C183.502 19.2032 183.814 19.1787 184.09 19.1052C184.378 19.0316 184.606 18.8968 184.774 18.7007C184.954 18.5045 185.038 18.2104 185.05 17.8181C185.05 17.5362 184.99 17.2788 184.87 17.0826C184.738 16.8743 184.522 16.7149 184.234 16.6046C183.946 16.5065 183.55 16.4452 183.058 16.4452H177.968V23.4321C177.968 23.5792 177.968 23.7999 177.98 24.0818C177.98 24.3515 177.992 24.6579 178.016 24.9889C178.04 25.3198 178.076 25.6508 178.124 25.9817C178.184 26.3127 178.244 26.6069 178.34 26.8765C178.436 27.134 178.556 27.3301 178.688 27.4649V27.6978H173.982Z" fill="#4C6A9A"/>
<path d="M197.355 27.6488V27.4894C197.607 27.3301 197.799 27.1462 197.907 26.9256C198.016 26.7172 198.076 25.234 198.1 25.0011H198.028C197.043 25.0011 196.131 24.8908 195.302 24.6824C194.462 24.4618 193.73 24.1431 193.106 23.7141C192.481 23.2973 191.989 22.7702 191.641 22.1451C191.293 21.5322 191.125 20.809 191.113 20C191.125 19.191 191.293 18.48 191.641 17.8549C191.989 17.2297 192.481 16.7027 193.106 16.2859C193.73 15.8691 194.462 15.5504 195.302 15.3298C196.131 15.1092 197.043 14.9988 198.028 14.9988H198.1C198.076 14.7537 198.016 14.5208 197.907 14.3001C197.799 14.0918 197.607 13.8956 197.355 13.7486V13.5769H201.725V13.7486C201.461 13.8956 201.269 14.0918 201.173 14.3001C201.065 14.5208 201.005 14.7537 200.981 14.9988H201.053C202.037 14.9988 202.937 15.1092 203.778 15.3298C204.618 15.5504 205.35 15.8691 205.975 16.2859C206.599 16.7027 207.091 17.2297 207.439 17.8549C207.787 18.48 207.967 19.191 207.967 20C207.967 20.809 207.787 21.5322 207.439 22.1451C207.091 22.7702 206.599 23.2973 205.975 23.7141C205.35 24.1431 204.618 24.4618 203.778 24.6824C202.937 24.8908 202.037 25.0011 201.053 25.0011H200.981C201.005 25.234 201.065 26.7172 201.173 26.9256C201.269 27.1462 201.461 27.3301 201.725 27.4894V27.6488H197.355ZM198.112 22.4883V17.5239H197.883C197.319 17.5239 196.815 17.5852 196.335 17.6955C195.855 17.8058 195.435 17.9529 195.074 18.1736C194.726 18.382 194.45 18.6516 194.246 18.9458C194.054 19.2645 193.946 19.62 193.946 20.0122C193.946 20.4167 194.054 20.76 194.246 21.0787C194.45 21.3851 194.726 21.6425 195.074 21.8509C195.435 22.0593 195.855 22.2186 196.335 22.3289C196.815 22.4393 197.319 22.4883 197.883 22.4883H198.112ZM202.745 22.3289C203.226 22.2186 203.646 22.0593 204.006 21.8509C204.354 21.6425 204.63 21.3851 204.834 21.0787C205.038 20.76 205.134 20.4167 205.134 20.0122C205.134 19.62 205.038 19.2645 204.834 18.9458C204.63 18.6516 204.354 18.382 204.006 18.1736C203.646 17.9529 203.226 17.8058 202.745 17.6955C202.277 17.5852 201.761 17.5239 201.197 17.5239H200.969V22.4883H201.197C201.761 22.4883 202.277 22.4393 202.745 22.3289Z" fill="#4C6A9A"/>
<path d="M1.32031 41.1443H2.68884V36.2412H5.28183V41.1443H6.65036V35.04H1.32031V41.1443Z" fill="#4C6A9A"/>
<path d="M13.0852 41.2793C13.5534 41.2793 13.9736 41.1935 14.3697 41.0219C14.7539 40.8626 15.102 40.6297 15.3781 40.3355C15.6662 40.0535 15.8943 39.7103 16.0504 39.3303C16.2064 38.9504 16.2905 38.5336 16.2905 38.0923C16.2905 37.651 16.2184 37.2343 16.0504 36.8543C15.8943 36.4743 15.6782 36.1311 15.3901 35.8369C15.102 35.5427 14.7659 35.3221 14.3817 35.1505C13.9976 34.9911 13.5654 34.9053 13.1092 34.9053C12.6531 34.9053 12.2209 34.9911 11.8368 35.1627C11.4526 35.3221 11.1165 35.555 10.8284 35.8492C10.5403 36.1433 10.3122 36.4743 10.1561 36.8665C10 37.2465 9.91602 37.6633 9.91602 38.0923C9.91602 38.5458 10 38.9504 10.1561 39.3426C10.3122 39.7226 10.5283 40.0535 10.8164 40.3477C11.1045 40.6419 11.4406 40.8626 11.8247 41.0342C12.2089 41.1935 12.6291 41.2793 13.0852 41.2793ZM13.1092 40.0658C12.7491 40.0658 12.437 39.9677 12.1609 39.7961C11.8968 39.6123 11.6807 39.3794 11.5246 39.0852C11.3686 38.791 11.2845 38.46 11.2845 38.0923C11.2845 37.7368 11.3686 37.4059 11.5126 37.0994C11.6567 36.8053 11.8608 36.5724 12.1249 36.4008C12.401 36.2291 12.7251 36.1311 13.0852 36.1311C13.4454 36.1311 13.7695 36.2291 14.0456 36.4008C14.3217 36.5724 14.5378 36.8175 14.6818 37.1117C14.8379 37.4059 14.9219 37.7368 14.9219 38.0923C14.9219 38.46 14.8499 38.791 14.7059 39.0852C14.5498 39.3794 14.3457 39.6123 14.0696 39.7961C13.8055 39.9677 13.4814 40.0658 13.1092 40.0658Z" fill="#4C6A9A"/>
<path d="M18.7031 41.1443H20.1557L21.6202 38.9992L23.0968 41.1443H24.5854L22.3765 38.0063L24.5014 35.04H23.0368L21.6563 37.0502L20.2757 35.04H18.7752L20.9 38.0431L18.7031 41.1443Z" fill="#4C6A9A"/>
<path d="M30.1673 41.2793C30.6234 41.2793 31.0556 41.1935 31.4397 41.0219C31.8359 40.8626 32.172 40.6297 32.4601 40.3355C32.7483 40.0535 32.9763 39.7103 33.1324 39.3303C33.2885 38.9504 33.3725 38.5336 33.3725 38.0923C33.3725 37.651 33.2885 37.2343 33.1324 36.8543C32.9763 36.4743 32.7483 36.1311 32.4721 35.8369C32.184 35.5427 31.8479 35.3221 31.4638 35.1505C31.0676 34.9911 30.6474 34.9053 30.1913 34.9053C29.7231 34.9053 29.3029 34.9911 28.9068 35.1627C28.5226 35.3221 28.1865 35.555 27.8984 35.8492C27.6103 36.1433 27.3942 36.4743 27.2381 36.8665C27.0701 37.2465 26.998 37.6633 26.998 38.0923C26.998 38.5458 27.0701 38.9504 27.2261 39.3426C27.3822 39.7226 27.6103 40.0535 27.8984 40.3477C28.1745 40.6419 28.5106 40.8626 28.8948 41.0342C29.2789 41.1935 29.7111 41.2793 30.1673 41.2793ZM30.1913 40.0658C29.8311 40.0658 29.519 39.9677 29.2429 39.7961C28.9668 39.6123 28.7507 39.3794 28.5947 39.0852C28.4506 38.791 28.3666 38.46 28.3666 38.0923C28.3666 37.7368 28.4386 37.4059 28.5827 37.0994C28.7267 36.8053 28.9428 36.5724 29.2069 36.4008C29.471 36.2291 29.7951 36.1311 30.1673 36.1311C30.5274 36.1311 30.8395 36.2291 31.1156 36.4008C31.3917 36.5724 31.6078 36.8175 31.7639 37.1117C31.9199 37.4059 32.004 37.7368 32.004 38.0923C32.004 38.46 31.9199 38.791 31.7759 39.0852C31.6318 39.3794 31.4157 39.6123 31.1516 39.7961C30.8755 39.9677 30.5634 40.0658 30.1913 40.0658Z" fill="#4C6A9A"/>
<path d="M36.6377 42.9954H38.0062V40.1884C38.1503 40.3845 38.3063 40.5561 38.4984 40.7277C38.6905 40.8871 38.9066 41.0096 39.1587 41.12C39.4108 41.218 39.7109 41.2671 40.035 41.2671C40.3951 41.2671 40.7433 41.1935 41.0674 41.0587C41.4035 40.9116 41.7036 40.7155 41.9677 40.4458C42.2198 40.1761 42.4359 39.8452 42.58 39.4529C42.736 39.0607 42.8201 38.6071 42.8201 38.0923C42.8201 37.5897 42.736 37.1362 42.58 36.7317C42.4239 36.3395 42.2198 36.0085 41.9557 35.7388C41.6916 35.4569 41.4035 35.2608 41.0674 35.1137C40.7313 34.9789 40.3951 34.9053 40.035 34.9053C39.7109 34.9053 39.4348 34.9666 39.1827 35.0647C38.9306 35.1627 38.7025 35.2976 38.5104 35.4692C38.3183 35.6408 38.1503 35.8369 38.0062 36.0575V35.0401H36.6377V42.9954ZM39.7109 40.0535C39.3988 40.0535 39.1106 39.9677 38.8465 39.8084C38.5944 39.649 38.3784 39.4284 38.2223 39.1342C38.0542 38.84 37.9822 38.4968 37.9702 38.0923C37.9822 37.7001 38.0542 37.3569 38.2223 37.0504C38.3784 36.7562 38.5944 36.5356 38.8465 36.364C39.1106 36.2046 39.3988 36.1188 39.7109 36.1188C40.035 36.1188 40.3111 36.2046 40.5752 36.364C40.8273 36.5233 41.0314 36.7562 41.1874 37.0504C41.3435 37.3323 41.4275 37.6756 41.4275 38.0801C41.4275 38.4846 41.3435 38.84 41.1874 39.1342C41.0434 39.4284 40.8393 39.649 40.5752 39.8084C40.3231 39.9677 40.035 40.0535 39.7109 40.0535Z" fill="#4C6A9A"/>
<path d="M48.9309 41.2793C49.3991 41.2793 49.8313 41.1935 50.2154 41.0219C50.6116 40.8626 50.9477 40.6297 51.2358 40.3355C51.5239 40.0535 51.74 39.7103 51.8961 39.3303C52.0641 38.9504 52.1362 38.5336 52.1482 38.0923C52.1362 37.651 52.0641 37.2343 51.9081 36.8543C51.74 36.4743 51.5239 36.1311 51.2358 35.8369C50.9597 35.5427 50.6236 35.3221 50.2274 35.1505C49.8433 34.9911 49.4231 34.9053 48.9549 34.9053C48.4988 34.9053 48.0786 34.9911 47.6825 35.1627C47.2983 35.3221 46.9622 35.555 46.6741 35.8492C46.386 36.1433 46.1699 36.4743 46.0018 36.8665C45.8458 37.2465 45.7737 37.6633 45.7617 38.0923C45.7737 38.5458 45.8458 38.9504 46.0018 39.3426C46.1579 39.7226 46.386 40.0535 46.6621 40.3477C46.9502 40.6419 47.2863 40.8626 47.6705 41.0342C48.0546 41.1935 48.4748 41.2793 48.9309 41.2793ZM48.9549 40.0658C48.6068 40.0658 48.2827 39.9677 48.0186 39.7961C47.7425 39.6123 47.5264 39.3794 47.3703 39.0852C47.2143 38.791 47.1423 38.46 47.1302 38.0923C47.1423 37.7368 47.2143 37.4059 47.3583 37.0994C47.5024 36.8053 47.7065 36.5724 47.9826 36.4008C48.2467 36.2291 48.5708 36.1311 48.9309 36.1311C49.3031 36.1311 49.6152 36.2291 49.8913 36.4008C50.1674 36.5724 50.3835 36.8175 50.5396 37.1117C50.6956 37.4059 50.7676 37.7368 50.7796 38.0923C50.7676 38.46 50.6956 38.791 50.5516 39.0852C50.4075 39.3794 50.1914 39.6123 49.9273 39.7961C49.6512 39.9677 49.3271 40.0658 48.9549 40.0658Z" fill="#4C6A9A"/>
<path d="M55.4014 41.1443H56.7819V38.6805H59.4109V41.1443H60.7914V35.04H59.4109V37.516H56.7819V35.04H55.4014V41.1443Z" fill="#4C6A9A"/>
<path d="M64.3809 41.1443H65.7494V38.6805H68.3904V41.1443H69.7589V35.04H68.3904V37.516H65.7494V35.04H64.3809V41.1443Z" fill="#4C6A9A"/>
<path d="M73.3477 41.1443H76.0847C76.5529 41.1443 76.9609 41.0585 77.2971 40.8869C77.6332 40.7275 77.8974 40.4947 78.0775 40.1882C78.2695 39.894 78.3536 39.5263 78.3536 39.1095C78.3536 38.656 78.2455 38.3005 78.0415 38.0063C77.8374 37.7244 77.5492 37.516 77.201 37.3812C76.8409 37.2464 76.4328 37.1728 75.9767 37.1728H74.7281V35.04H73.3477V41.1443ZM74.7281 40.0043V38.2638H75.8806C76.2288 38.2638 76.5049 38.3373 76.6969 38.4844C76.889 38.6192 76.9851 38.8276 76.9851 39.1095C76.9851 39.4037 76.889 39.6244 76.6969 39.7837C76.5169 39.9308 76.2528 40.0043 75.9046 40.0043H74.7281ZM79.2659 41.1443H80.6345V35.04H79.2659V41.1443Z" fill="#4C6A9A"/>
<path d="M86.9617 34.3292C87.2858 34.3292 87.5739 34.2557 87.826 34.1331C88.0661 33.9983 88.2702 33.8144 88.4262 33.5693C88.5823 33.3364 88.6783 33.0544 88.7383 32.7235L87.91 32.5641C87.838 32.8093 87.7299 32.9931 87.5739 33.1402C87.4178 33.2751 87.2258 33.3364 86.9617 33.3486C86.7096 33.3364 86.5175 33.2751 86.3614 33.1402C86.2054 32.9931 86.0973 32.8093 86.0253 32.5641L85.185 32.7235C85.245 33.0544 85.341 33.3364 85.4971 33.5693C85.6652 33.8144 85.8692 33.9983 86.1093 34.1331C86.3614 34.2557 86.6495 34.3292 86.9617 34.3292ZM84.2246 41.1445H85.5211L88.3662 37.075V41.1445H89.6867V35.0402H88.3902C87.922 35.7144 87.4418 36.4008 86.9737 37.075C86.5055 37.7614 86.0373 38.4478 85.5691 39.1342V35.0402H84.2246V41.1445Z" fill="#4C6A9A"/>
<path d="M101.379 41.2793C101.847 41.2793 102.279 41.1935 102.663 41.0219C103.059 40.8626 103.396 40.6297 103.684 40.3355C103.972 40.0535 104.188 39.7103 104.344 39.3303C104.512 38.9504 104.584 38.5336 104.584 38.0923C104.584 37.651 104.512 37.2343 104.356 36.8543C104.188 36.4743 103.972 36.1311 103.684 35.8369C103.396 35.5427 103.059 35.3221 102.675 35.1505C102.291 34.9911 101.871 34.9053 101.403 34.9053C100.947 34.9053 100.526 34.9911 100.13 35.1627C99.7466 35.3221 99.4104 35.555 99.1223 35.8492C98.8342 36.1433 98.6181 36.4743 98.4501 36.8665C98.294 37.2465 98.21 37.6633 98.21 38.0923C98.21 38.5458 98.294 38.9504 98.4501 39.3426C98.6061 39.7226 98.8342 40.0535 99.1103 40.3477C99.3984 40.6419 99.7346 40.8626 100.118 41.0342C100.502 41.1935 100.923 41.2793 101.379 41.2793ZM101.403 40.0658C101.043 40.0658 100.731 39.9677 100.454 39.7961C100.19 39.6123 99.9746 39.3794 99.8186 39.0852C99.6625 38.791 99.5785 38.46 99.5785 38.0923C99.5785 37.7368 99.6625 37.4059 99.8066 37.0994C99.9506 36.8053 100.154 36.5724 100.43 36.4008C100.695 36.2291 101.019 36.1311 101.379 36.1311C101.751 36.1311 102.063 36.2291 102.339 36.4008C102.615 36.5724 102.831 36.8175 102.987 37.1117C103.131 37.4059 103.215 37.7368 103.215 38.0923C103.215 38.46 103.143 38.791 102.999 39.0852C102.855 39.3794 102.639 39.6123 102.363 39.7961C102.099 39.9677 101.775 40.0658 101.403 40.0658Z" fill="#4C6A9A"/>
<path d="M107.85 41.1443H109.231V38.6805H111.86V41.1443H113.24V35.04H111.86V37.516H109.231V35.04H107.85V41.1443Z" fill="#4C6A9A"/>
<path d="M116.781 41.2056C117.046 41.2179 117.286 41.1811 117.514 41.1198C117.742 41.0585 117.934 40.9237 118.102 40.7398C118.282 40.5437 118.426 40.274 118.546 39.9063C118.666 39.5386 118.762 39.0482 118.822 38.4599C118.894 37.8592 118.918 37.1238 118.918 36.2412H120.791V41.1443H122.16V35.04H117.646C117.646 35.8 117.634 36.4619 117.61 37.0135C117.574 37.5651 117.538 38.0309 117.49 38.3986C117.442 38.7663 117.382 39.0605 117.322 39.2811C117.25 39.5018 117.178 39.6611 117.082 39.7714C116.998 39.8818 116.902 39.9431 116.805 39.9798C116.697 40.0166 116.589 40.0289 116.481 40.0289C116.445 40.0289 116.409 40.0289 116.349 40.0289C116.301 40.0166 116.253 40.0166 116.205 40.0043C116.157 40.0043 116.109 39.9921 116.085 39.9798L115.977 41.1321C116.049 41.1443 116.133 41.1566 116.229 41.1688C116.325 41.1811 116.421 41.1933 116.517 41.1933C116.625 41.2056 116.709 41.2056 116.781 41.2056Z" fill="#4C6A9A"/>
<path d="M130.766 41.1443V37.5161C130.766 36.9767 130.67 36.5109 130.49 36.131C130.286 35.7387 129.998 35.4445 129.614 35.2484C129.218 35.04 128.737 34.942 128.149 34.942C127.825 34.942 127.525 34.9665 127.273 35.0032C127.009 35.0523 126.757 35.1136 126.529 35.1871C126.313 35.2607 126.084 35.3465 125.868 35.4445L126.241 36.5722C126.505 36.4497 126.781 36.3638 127.045 36.2903C127.321 36.229 127.621 36.1922 127.957 36.1922C128.425 36.1922 128.797 36.3026 129.05 36.5232C129.302 36.7438 129.422 37.0748 129.422 37.5038V37.6141C129.278 37.5651 129.11 37.5161 128.954 37.4793C128.785 37.4425 128.617 37.418 128.425 37.3935C128.233 37.369 128.017 37.3567 127.777 37.3567C127.297 37.3567 126.889 37.4303 126.529 37.5774C126.156 37.7245 125.868 37.9451 125.664 38.2393C125.46 38.5335 125.352 38.9134 125.352 39.3547C125.352 39.6734 125.4 39.9431 125.52 40.1882C125.64 40.4211 125.784 40.6173 125.988 40.7766C126.18 40.936 126.409 41.0585 126.661 41.1443C126.925 41.2302 127.189 41.2669 127.477 41.2669C127.777 41.2669 128.053 41.2302 128.293 41.1443C128.533 41.0708 128.749 40.9727 128.93 40.8379C129.122 40.7031 129.278 40.556 129.41 40.3844V41.1443H130.766ZM129.446 38.9257C129.446 39.1831 129.374 39.416 129.242 39.5999C129.098 39.796 128.918 39.9431 128.677 40.0534C128.437 40.1637 128.161 40.2128 127.861 40.2128C127.645 40.2128 127.453 40.176 127.273 40.1147C127.105 40.0412 126.961 39.9431 126.865 39.8083C126.757 39.6734 126.709 39.5018 126.709 39.318C126.709 38.9993 126.829 38.7664 127.069 38.5947C127.309 38.4231 127.645 38.3496 128.077 38.3373C128.341 38.3496 128.593 38.3619 128.834 38.4109C129.062 38.4599 129.266 38.5089 129.446 38.5825V38.9257Z" fill="#4C6A9A"/>
<path d="M137.008 34.3292C137.332 34.3292 137.62 34.2557 137.872 34.1331C138.113 33.9983 138.317 33.8144 138.473 33.5693C138.629 33.3364 138.725 33.0544 138.785 32.7235L137.956 32.5641C137.884 32.8093 137.764 32.9931 137.62 33.1402C137.464 33.2751 137.26 33.3364 137.008 33.3486C136.756 33.3364 136.564 33.2751 136.408 33.1402C136.252 32.9931 136.144 32.8093 136.072 32.5641L135.231 32.7235C135.291 33.0544 135.388 33.3364 135.544 33.5693C135.7 33.8144 135.904 33.9983 136.156 34.1331C136.408 34.2557 136.696 34.3292 137.008 34.3292ZM134.271 41.1445H135.568L138.413 37.075V41.1445H139.733V35.0402H138.437C137.968 35.7144 137.488 36.4008 137.02 37.075C136.552 37.7614 136.084 38.4478 135.604 39.1342V35.0402H134.271V41.1445Z" fill="#4C6A9A"/>
<path d="M143.323 41.1443H144.691V38.6805H147.332V41.1443H148.701V35.04H147.332V37.516H144.691V35.04H143.323V41.1443Z" fill="#4C6A9A"/>
<path d="M152.062 38.2884H155.424V36.9032H152.062V38.2884Z" fill="#4C6A9A"/>
<path d="M161.546 41.2793C161.93 41.2793 162.278 41.2303 162.566 41.1322C162.866 41.0342 163.13 40.8993 163.358 40.7277C163.586 40.5561 163.803 40.36 163.995 40.1393L163.166 39.3058C162.95 39.5265 162.722 39.7103 162.47 39.8574C162.218 39.9923 161.942 40.0658 161.618 40.0658C161.258 40.0658 160.957 39.9677 160.681 39.7961C160.417 39.6245 160.213 39.3916 160.057 39.0852C159.913 38.8033 159.829 38.46 159.829 38.0923V38.0801C159.829 37.7123 159.901 37.3936 160.057 37.0994C160.201 36.8053 160.405 36.5724 160.657 36.4008C160.921 36.2291 161.21 36.1311 161.546 36.1311C161.774 36.1311 161.978 36.1679 162.17 36.2291C162.35 36.2904 162.518 36.3762 162.662 36.4988C162.818 36.6091 162.962 36.744 163.106 36.8911L163.947 35.9595C163.767 35.7511 163.562 35.5672 163.334 35.4079C163.106 35.2485 162.854 35.126 162.566 35.0401C162.266 34.9543 161.942 34.9053 161.558 34.9053C161.114 34.9053 160.693 34.9911 160.321 35.1627C159.937 35.3221 159.613 35.555 159.337 35.8492C159.061 36.1433 158.845 36.4866 158.689 36.8665C158.533 37.2465 158.461 37.6633 158.461 38.0923V38.1168C158.461 38.5581 158.533 38.9626 158.689 39.3426C158.845 39.7226 159.061 40.0658 159.337 40.3477C159.613 40.6419 159.937 40.8626 160.321 41.0342C160.693 41.1935 161.102 41.2793 161.546 41.2793Z" fill="#4C6A9A"/>
<path d="M169.589 41.2793C170.13 41.2671 170.61 41.169 171.006 40.9606C171.414 40.7645 171.75 40.4826 172.026 40.1271L171.222 39.4039C170.994 39.6368 170.742 39.8206 170.49 39.9432C170.226 40.0658 169.938 40.1271 169.613 40.1271C169.313 40.1271 169.037 40.0781 168.797 39.9555C168.557 39.8329 168.365 39.6613 168.197 39.4284C168.041 39.1955 167.933 38.9136 167.885 38.5826H172.278C172.29 38.5581 172.29 38.5213 172.29 38.4723C172.302 38.4233 172.302 38.3742 172.302 38.3252C172.302 38.2639 172.302 38.2271 172.302 38.1904C172.302 37.7491 172.242 37.3323 172.122 36.9401C172.002 36.5478 171.822 36.1924 171.582 35.8859C171.342 35.5917 171.042 35.3466 170.682 35.175C170.334 35.0034 169.914 34.9053 169.433 34.9053C169.001 34.9053 168.617 34.9911 168.257 35.1627C167.909 35.3221 167.597 35.555 167.333 35.8492C167.068 36.1311 166.876 36.4743 166.732 36.8543C166.588 37.2343 166.516 37.651 166.516 38.0923C166.516 38.5704 166.6 38.9994 166.756 39.3916C166.9 39.7839 167.116 40.1148 167.405 40.3968C167.681 40.6787 168.005 40.8993 168.377 41.0464C168.749 41.1935 169.145 41.2793 169.589 41.2793ZM167.873 37.6633C167.921 37.3446 168.005 37.0627 168.149 36.8175C168.281 36.5846 168.461 36.3885 168.677 36.2537C168.893 36.1188 169.145 36.0575 169.421 36.0575C169.733 36.0575 169.986 36.1311 170.202 36.2659C170.418 36.413 170.586 36.5969 170.718 36.842C170.838 37.0872 170.91 37.3569 170.946 37.6633H167.873Z" fill="#4C6A9A"/>
<path d="M175.555 42.9954H176.924V40.1884C177.068 40.3845 177.224 40.5561 177.416 40.7277C177.608 40.8871 177.836 41.0096 178.088 41.12C178.34 41.218 178.628 41.2671 178.953 41.2671C179.313 41.2671 179.661 41.1935 179.985 41.0587C180.321 40.9116 180.621 40.7155 180.885 40.4458C181.149 40.1761 181.353 39.8452 181.51 39.4529C181.654 39.0607 181.738 38.6071 181.738 38.0923C181.738 37.5897 181.654 37.1362 181.51 36.7317C181.353 36.3395 181.137 36.0085 180.885 35.7388C180.621 35.4569 180.321 35.2608 179.985 35.1137C179.649 34.9789 179.313 34.9053 178.953 34.9053C178.64 34.9053 178.352 34.9666 178.1 35.0647C177.848 35.1627 177.632 35.2976 177.428 35.4692C177.236 35.6408 177.068 35.8369 176.924 36.0575V35.0401H175.555V42.9954ZM178.64 40.0535C178.328 40.0535 178.04 39.9677 177.776 39.8084C177.512 39.649 177.296 39.4284 177.14 39.1342C176.972 38.84 176.9 38.4968 176.888 38.0923C176.9 37.7001 176.972 37.3569 177.14 37.0504C177.296 36.7562 177.512 36.5356 177.776 36.364C178.04 36.2046 178.328 36.1188 178.64 36.1188C178.953 36.1188 179.241 36.2046 179.493 36.364C179.757 36.5233 179.961 36.7562 180.117 37.0504C180.261 37.3323 180.345 37.6756 180.345 38.0801C180.345 38.4846 180.261 38.84 180.117 39.1342C179.961 39.4284 179.757 39.649 179.505 39.8084C179.241 39.9677 178.953 40.0535 178.64 40.0535Z" fill="#4C6A9A"/>
<path d="M185.015 41.1443H188.112C188.569 41.1443 188.965 41.0708 189.289 40.9359C189.625 40.8134 189.877 40.6172 190.057 40.3721C190.237 40.1269 190.321 39.8327 190.321 39.4895C190.321 39.1953 190.273 38.9502 190.165 38.7541C190.057 38.5457 189.913 38.3863 189.733 38.2515C189.553 38.1289 189.337 38.0309 189.097 37.9573C189.265 37.8838 189.421 37.7857 189.565 37.6631C189.709 37.5405 189.829 37.3935 189.913 37.2096C190.009 37.038 190.045 36.8173 190.057 36.5599C190.045 36.2412 189.973 35.9716 189.805 35.7509C189.649 35.518 189.421 35.3464 189.121 35.2238C188.833 35.1013 188.485 35.04 188.076 35.04H185.015V41.1443ZM186.36 40.0289V38.5089H187.848C188.22 38.5089 188.485 38.5702 188.665 38.705C188.845 38.8399 188.929 39.0237 188.929 39.2444C188.929 39.4895 188.845 39.6734 188.677 39.8205C188.497 39.9553 188.244 40.0289 187.908 40.0289H186.36ZM186.36 37.5528V36.1064H187.788C188.088 36.1064 188.317 36.1799 188.461 36.3025C188.593 36.4374 188.665 36.609 188.665 36.8051C188.665 37.0257 188.581 37.2096 188.437 37.3444C188.281 37.4793 188.052 37.5528 187.764 37.5528H186.36Z" fill="#4C6A9A"/>
<path d="M193.562 41.1443H194.86L197.704 37.0748V41.1443H199.025V35.04H197.729C197.261 35.7142 196.78 36.4006 196.312 37.0748C195.844 37.7612 195.376 38.4476 194.908 39.134V35.04H193.562V41.1443Z" fill="#4C6A9A"/>
<path d="M205.376 41.2793C205.76 41.2793 206.108 41.2303 206.396 41.1322C206.696 41.0342 206.96 40.8993 207.189 40.7277C207.417 40.5561 207.633 40.36 207.825 40.1393L206.996 39.3058C206.78 39.5265 206.552 39.7103 206.3 39.8574C206.048 39.9923 205.76 40.0658 205.448 40.0658C205.088 40.0658 204.776 39.9677 204.512 39.7961C204.247 39.6245 204.031 39.3916 203.887 39.0852C203.731 38.8033 203.659 38.46 203.659 38.0923V38.0801C203.659 37.7123 203.731 37.3936 203.875 37.0994C204.031 36.8053 204.223 36.5724 204.487 36.4008C204.74 36.2291 205.04 36.1311 205.376 36.1311C205.604 36.1311 205.808 36.1679 205.988 36.2291C206.18 36.2904 206.348 36.3762 206.492 36.4988C206.648 36.6091 206.792 36.744 206.924 36.8911L207.777 35.9595C207.597 35.7511 207.393 35.5672 207.165 35.4079C206.936 35.2485 206.684 35.126 206.384 35.0401C206.096 34.9543 205.76 34.9053 205.388 34.9053C204.944 34.9053 204.524 34.9911 204.151 35.1627C203.767 35.3221 203.443 35.555 203.167 35.8492C202.891 36.1433 202.675 36.4866 202.519 36.8665C202.363 37.2465 202.291 37.6633 202.291 38.0923V38.1168C202.291 38.5581 202.363 38.9626 202.519 39.3426C202.675 39.7226 202.891 40.0658 203.167 40.3477C203.443 40.6419 203.767 40.8626 204.139 41.0342C204.524 41.1935 204.932 41.2793 205.376 41.2793Z" fill="#4C6A9A"/>
</svg>
