<svg width="31" height="22" viewBox="0 0 31 22" fill="none" xmlns="http://www.w3.org/2000/svg">
<path d="M25.0588 7.69779C19.6137 6.79738 16.3984 11.788 13.391 15.4184C11.9015 17.2096 9.93792 19.202 7.50021 19.3937C5.12888 19.5757 2.97564 17.8419 2.61532 15.4759C2.255 13.0428 3.92465 10.4757 6.34339 10.2554C9.35951 9.98712 10.2611 11.5677 11.7024 12.813L13.3626 10.878C13.3531 10.8685 13.3531 10.8685 13.3531 10.8685L13.5712 10.6002C11.1335 8.95263 10.9154 4.72833 13.116 2.78381C15.3167 0.829709 18.5991 1.31824 20.5911 3.31065C18.8551 -0.779546 13.2867 -0.942388 10.5076 2.06539C9.00866 3.67465 8.46819 5.84907 8.77162 7.88937C8.09838 7.67864 7.4054 7.56369 6.69423 7.61158C4.18067 7.75527 1.87571 9.28787 0.737065 11.5581C-1.511 16.0889 1.64735 21.6447 6.63734 21.98C11.911 22.3535 14.89 17.4204 17.8587 13.8858C19.3671 12.085 21.3781 10.1883 23.8633 10.1787C26.2441 10.1787 28.293 12.0658 28.4542 14.4701C28.6249 16.7307 27.0603 18.8381 24.8597 19.317C22.7349 19.7768 20.8187 18.091 19.3197 16.7882L17.6596 18.7232C19.3956 20.2366 21.5868 21.98 23.996 21.98C26.5191 21.98 28.9102 20.4952 30.1239 18.2921C32.4857 14.0103 29.8299 8.48328 25.0588 7.69779Z" fill="white"/>
</svg>
