<svg width="20" height="6" viewBox="0 0 20 6" fill="none" xmlns="http://www.w3.org/2000/svg">
<path d="M5 3C5 3.49445 4.85338 3.9778 4.57868 4.38893C4.30397 4.80005 3.91353 5.12048 3.45671 5.3097C2.9999 5.49892 2.49723 5.54843 2.01228 5.45196C1.52732 5.3555 1.08187 5.1174 0.732234 4.76777C0.382603 4.41814 0.144501 3.97268 0.0480379 3.48773C-0.0484251 3.00277 0.0010832 2.50011 0.190302 2.04329C0.379521 1.58648 0.699953 1.19603 1.11108 0.921326C1.5222 0.646623 2.00555 0.5 2.5 0.5C3.16304 0.5 3.79893 0.763393 4.26777 1.23223C4.73661 1.70107 5 2.33696 5 3ZM17.5 0.5C17.0055 0.5 16.5222 0.646623 16.1111 0.921326C15.7 1.19603 15.3795 1.58648 15.1903 2.04329C15.0011 2.50011 14.9516 3.00277 15.048 3.48773C15.1445 3.97268 15.3826 4.41814 15.7322 4.76777C16.0819 5.1174 16.5273 5.3555 17.0123 5.45196C17.4972 5.54843 17.9999 5.49892 18.4567 5.3097C18.9135 5.12048 19.304 4.80005 19.5787 4.38893C19.8534 3.9778 20 3.49445 20 3C20 2.33696 19.7366 1.70107 19.2678 1.23223C18.7989 0.763393 18.163 0.5 17.5 0.5ZM10 0.5C9.50555 0.5 9.0222 0.646623 8.61108 0.921326C8.19995 1.19603 7.87952 1.58648 7.6903 2.04329C7.50108 2.50011 7.45157 3.00277 7.54804 3.48773C7.6445 3.97268 7.8826 4.41814 8.23223 4.76777C8.58187 5.1174 9.02732 5.3555 9.51228 5.45196C9.99723 5.54843 10.4999 5.49892 10.9567 5.3097C11.4135 5.12048 11.804 4.80005 12.0787 4.38893C12.3534 3.9778 12.5 3.49445 12.5 3C12.5 2.33696 12.2366 1.70107 11.7678 1.23223C11.2989 0.763393 10.663 0.5 10 0.5Z" fill="#B1B7C3"/>
</svg>
