<svg width="27" height="31" viewBox="0 0 27 31" fill="none" xmlns="http://www.w3.org/2000/svg">
<path d="M25.4155 21.5518C24.285 20.1772 22.7369 18.23 22.7369 16.2431V9.91712C22.7369 4.46791 18.6614 0.0339355 13.4524 0.0339355C8.24249 0.0339355 4.19892 4.46791 4.19892 9.91712V16.2431C4.19892 18.1961 2.51911 20.0415 1.45445 21.4743C0.496359 22.7608 -0.260235 23.778 0.251265 24.7942C0.699796 25.6884 1.82452 25.8027 2.75355 25.8027H8.30448C8.30642 28.6547 10.6188 30.9671 13.4708 30.9671C16.3228 30.9671 18.6372 28.6557 18.6381 25.8027H24.3189C24.9098 25.8027 26.2913 25.8027 26.7669 24.7971C27.2465 23.7799 26.4792 22.8451 25.4155 21.5518ZM13.4699 28.9376C11.7377 28.9376 10.3321 27.5348 10.3301 25.8037H16.6096C16.6067 27.5348 15.203 28.9376 13.4699 28.9376ZM24.3189 23.7402H2.75258C2.60436 23.7402 2.48036 23.7354 2.37864 23.7286C2.5782 23.4196 2.87077 23.0243 3.11005 22.7037C4.28998 21.1178 6.26333 18.8781 6.26333 16.2431V9.91712C6.26333 5.60425 9.3827 2.0964 13.4544 2.0964C17.526 2.0964 20.6764 5.60522 20.6764 9.91712V16.2431C20.6764 18.9682 22.4957 21.2457 23.8239 22.8616C24.0476 23.1338 24.315 23.4593 24.5233 23.7383C24.4613 23.7402 24.3935 23.7412 24.3208 23.7412L24.3189 23.7402Z" fill="#B1B7C3"/>
</svg>
