<svg width="15" height="15" viewBox="0 0 15 15" fill="none" xmlns="http://www.w3.org/2000/svg">
<g clip-path="url(#clip0_117_143)">
<path d="M14.5312 3.28125H0.46875C0.34443 3.28125 0.225201 3.33064 0.137294 3.41854C0.049386 3.50645 0 3.62568 0 3.75L0 11.25C0 11.3743 0.049386 11.4935 0.137294 11.5815C0.225201 11.6694 0.34443 11.7188 0.46875 11.7188H14.5312C14.6556 11.7188 14.7748 11.6694 14.8627 11.5815C14.9506 11.4935 15 11.3743 15 11.25V3.75C15 3.62568 14.9506 3.50645 14.8627 3.41854C14.7748 3.33064 14.6556 3.28125 14.5312 3.28125ZM11.7609 10.7812H3.23906C3.14137 10.2064 2.86739 9.67604 2.45505 9.2637C2.04271 8.85136 1.5124 8.57738 0.9375 8.47969V6.52031C1.5124 6.42262 2.04271 6.14864 2.45505 5.7363C2.86739 5.32396 3.14137 4.79365 3.23906 4.21875H11.7609C11.8586 4.79365 12.1326 5.32396 12.5449 5.7363C12.9573 6.14864 13.4876 6.42262 14.0625 6.52031V8.47969C13.4876 8.57738 12.9573 8.85136 12.5449 9.2637C12.1326 9.67604 11.8586 10.2064 11.7609 10.7812ZM14.0625 5.55937C13.7401 5.47521 13.4459 5.30663 13.2103 5.07099C12.9746 4.83536 12.806 4.54118 12.7219 4.21875H14.0625V5.55937ZM2.27813 4.21875C2.19396 4.54118 2.02538 4.83536 1.78974 5.07099C1.55411 5.30663 1.25993 5.47521 0.9375 5.55937V4.21875H2.27813ZM0.9375 9.44062C1.25993 9.52479 1.55411 9.69337 1.78974 9.92901C2.02538 10.1646 2.19396 10.4588 2.27813 10.7812H0.9375V9.44062ZM12.7219 10.7812C12.806 10.4588 12.9746 10.1646 13.2103 9.92901C13.4459 9.69337 13.7401 9.52479 14.0625 9.44062V10.7812H12.7219Z" fill="#B1B7C3"/>
<path d="M3.52029 0.332831C3.46691 0.301972 3.40797 0.281947 3.34684 0.273903C3.28571 0.26586 3.22359 0.269956 3.16404 0.285956C3.04395 0.317154 2.94112 0.394695 2.8781 0.501581L1.9406 2.10939C1.87844 2.21755 1.8618 2.34597 1.89432 2.46641C1.92685 2.58684 2.00588 2.68942 2.11404 2.75158C2.2222 2.81374 2.35062 2.83039 2.47106 2.79786C2.59149 2.76534 2.69407 2.6863 2.75623 2.57814L3.45935 1.37814L5.83592 2.75158C5.94408 2.81374 6.0725 2.83039 6.19293 2.79786C6.31336 2.76534 6.41594 2.6863 6.47811 2.57814C6.54027 2.46999 6.55691 2.34156 6.52439 2.22113C6.49186 2.1007 6.41283 1.99812 6.30467 1.93596L3.52029 0.332831Z" fill="#B1B7C3"/>
<path d="M11.4797 14.6671C11.5507 14.7093 11.6316 14.7319 11.7141 14.7328C11.7545 14.7396 11.7957 14.7396 11.836 14.7328C11.9561 14.7016 12.0589 14.624 12.1219 14.5171L13.0594 12.9093C13.1216 12.8012 13.1382 12.6727 13.1057 12.5523C13.0732 12.4319 12.9941 12.3293 12.886 12.2671C12.7778 12.205 12.6494 12.1883 12.529 12.2209C12.4085 12.2534 12.306 12.3324 12.2438 12.4406L11.5501 13.6406L9.17349 12.2671C9.06533 12.205 8.93691 12.1883 8.81648 12.2209C8.69604 12.2534 8.59346 12.3324 8.5313 12.4406C8.46914 12.5487 8.45249 12.6772 8.48502 12.7976C8.51755 12.918 8.59658 13.0206 8.70474 13.0828L11.4797 14.6671Z" fill="#B1B7C3"/>
<path d="M7.5 4.6875C6.94374 4.6875 6.39997 4.85245 5.93746 5.16149C5.47495 5.47053 5.11446 5.90979 4.90159 6.4237C4.68872 6.93762 4.63302 7.50312 4.74154 8.04869C4.85006 8.59426 5.11793 9.0954 5.51126 9.48874C5.9046 9.88207 6.40574 10.1499 6.95131 10.2585C7.49688 10.367 8.06238 10.3113 8.5763 10.0984C9.09022 9.88554 9.52947 9.52505 9.83851 9.06254C10.1476 8.60003 10.3125 8.05626 10.3125 7.5C10.3125 6.75408 10.0162 6.03871 9.48874 5.51126C8.96129 4.98382 8.24592 4.6875 7.5 4.6875ZM7.5 9.375C7.12916 9.375 6.76665 9.26503 6.45831 9.05901C6.14996 8.85298 5.90964 8.56014 5.76773 8.21753C5.62581 7.87492 5.58868 7.49792 5.66103 7.13421C5.73338 6.77049 5.91195 6.4364 6.17418 6.17417C6.4364 5.91195 6.77049 5.73337 7.13421 5.66103C7.49792 5.58868 7.87492 5.62581 8.21753 5.76773C8.56014 5.90964 8.85298 6.14996 9.05901 6.45831C9.26503 6.76665 9.375 7.12916 9.375 7.5C9.375 7.99728 9.17746 8.47419 8.82583 8.82582C8.4742 9.17746 7.99728 9.375 7.5 9.375Z" fill="#B1B7C3"/>
</g>
<defs>
<clipPath id="clip0_117_143">
<rect width="15" height="15" fill="white"/>
</clipPath>
</defs>
</svg>
