<svg width="24" height="24" viewBox="0 0 24 24" fill="none" xmlns="http://www.w3.org/2000/svg">
<path fill-rule="evenodd" clip-rule="evenodd" d="M10.6 21.8C10.6 22.1714 10.7475 22.5274 11.0101 22.79C11.2727 23.0525 11.6287 23.2 12 23.2C12.3714 23.2 12.7274 23.0525 12.99 22.79C13.2525 22.5274 13.4 22.1714 13.4 21.8V13.4H21.8C22.1714 13.4 22.5274 13.2525 22.79 12.99C23.0525 12.7274 23.2 12.3714 23.2 12C23.2 11.6287 23.0525 11.2727 22.79 11.0101C22.5274 10.7475 22.1714 10.6 21.8 10.6H13.4V2.20005C13.4 1.82875 13.2525 1.47265 12.99 1.2101C12.7274 0.947548 12.3714 0.800049 12 0.800049C11.6287 0.800049 11.2727 0.947548 11.0101 1.2101C10.7475 1.47265 10.6 1.82875 10.6 2.20005V10.6H2.20005C1.82875 10.6 1.47265 10.7475 1.2101 11.0101C0.947548 11.2727 0.800049 11.6287 0.800049 12C0.800049 12.3714 0.947548 12.7274 1.2101 12.99C1.47265 13.2525 1.82875 13.4 2.20005 13.4H10.6V21.8Z" fill="#5B8EDF"/>
</svg>
