<svg width="30" height="30" viewBox="0 0 30 30" fill="none" xmlns="http://www.w3.org/2000/svg">
<path d="M22.6106 23.2875C21.0018 24.7654 18.9974 25.7429 16.8422 26.1007C14.6871 26.4584 12.4744 26.1809 10.4743 25.3021C8.47423 24.4232 6.77331 22.981 5.57921 21.1516C4.38511 19.3222 3.74951 17.1847 3.75 15H5.625C5.62487 16.8883 6.19496 18.7327 7.26064 20.2915C8.32632 21.8504 9.8379 23.0511 11.5975 23.7364C13.357 24.4218 15.2825 24.5598 17.1218 24.1324C18.9611 23.705 20.6285 22.7322 21.9056 21.3413H19.1812C18.9326 21.3413 18.6942 21.2425 18.5183 21.0667C18.3425 20.8909 18.2437 20.6524 18.2437 20.4038C18.2437 20.1551 18.3425 19.9167 18.5183 19.7408C18.6942 19.565 18.9326 19.4663 19.1812 19.4663H23.5481C23.7968 19.4663 24.0352 19.565 24.211 19.7408C24.3869 19.9167 24.4856 20.1551 24.4856 20.4038V24.7669C24.4856 25.0155 24.3869 25.254 24.211 25.4298C24.0352 25.6056 23.7968 25.7044 23.5481 25.7044C23.2995 25.7044 23.061 25.6056 22.8852 25.4298C22.7094 25.254 22.6106 25.0155 22.6106 24.7669V23.2856V23.2875ZM8.09438 8.66063H10.8188C11.0674 8.66063 11.3058 8.75941 11.4817 8.93522C11.6575 9.11104 11.7562 9.34949 11.7562 9.59813C11.7562 9.84678 11.6575 10.0852 11.4817 10.261C11.3058 10.4369 11.0674 10.5356 10.8188 10.5356H6.45C6.20136 10.5356 5.9629 10.4369 5.78709 10.261C5.61127 10.0852 5.5125 9.84678 5.5125 9.59813V5.23126C5.5125 4.98262 5.61127 4.74416 5.78709 4.56835C5.9629 4.39253 6.20136 4.29376 6.45 4.29376C6.69864 4.29376 6.9371 4.39253 7.11291 4.56835C7.28873 4.74416 7.3875 4.98262 7.3875 5.23126V6.71251C8.99617 5.23276 11.0011 4.25368 13.1571 3.8949C15.3132 3.53613 17.5271 3.81321 19.5283 4.69228C21.5295 5.57134 23.2312 7.01433 24.4256 8.84488C25.62 10.6754 26.2552 12.8143 26.2537 15H24.3787C24.3789 13.1115 23.8087 11.2669 22.7428 9.70787C21.6769 8.14887 20.165 6.94814 18.4051 6.26295C16.6452 5.57777 14.7194 5.44007 12.88 5.8679C11.0405 6.29573 9.37313 7.26914 8.09625 8.66063H8.09438Z" fill="#418BFC"/>
</svg>
