<svg width="30" height="30" viewBox="0 0 30 30" fill="none" xmlns="http://www.w3.org/2000/svg">
<path fill-rule="evenodd" clip-rule="evenodd" d="M11.6667 3.33333C7.0643 3.33333 3.33333 7.0643 3.33333 11.6667C3.33333 16.269 7.0643 20 11.6667 20C13.9683 20 16.0493 19.0692 17.5592 17.5592C19.0692 16.0493 20 13.9683 20 11.6667C20 7.0643 16.269 3.33333 11.6667 3.33333ZM0 11.6667C0 5.22335 5.22335 0 11.6667 0C18.11 0 23.3333 5.22335 23.3333 11.6667C23.3333 14.2865 22.4683 16.7065 21.0105 18.6535L29.5118 27.1548C30.1627 27.8057 30.1627 28.861 29.5118 29.5118C28.861 30.1627 27.8057 30.1627 27.1548 29.5118L18.6535 21.0105C16.7065 22.4683 14.2865 23.3333 11.6667 23.3333C5.22335 23.3333 0 18.11 0 11.6667Z" fill="#333333"/>
</svg>
