<svg width="16" height="16" viewBox="0 0 16 16" fill="none" xmlns="http://www.w3.org/2000/svg">
<g clip-path="url(#clip0_314_4477)">
<path d="M2.75 13.5H4.25C4.38825 13.5 4.5 13.3882 4.5 13.25V12C4.5 11.8618 4.38825 11.75 4.25 11.75H2.75C2.61175 11.75 2.5 11.8618 2.5 12V13.25C2.5 13.3882 2.61175 13.5 2.75 13.5ZM3 12.25H4V13H3V12.25Z" fill="#B1B7C3"/>
<path d="M5.75 13.5H7.25C7.38825 13.5 7.5 13.3882 7.5 13.25V12C7.5 11.8618 7.38825 11.75 7.25 11.75H5.75C5.61175 11.75 5.5 11.8618 5.5 12V13.25C5.5 13.3882 5.61175 13.5 5.75 13.5ZM6 12.25H7V13H6V12.25Z" fill="#B1B7C3"/>
<path d="M8.75 13.5H10.25C10.3882 13.5 10.5 13.3882 10.5 13.25V12C10.5 11.8618 10.3882 11.75 10.25 11.75H8.75C8.61175 11.75 8.5 11.8618 8.5 12V13.25C8.5 13.3882 8.61175 13.5 8.75 13.5ZM9 12.25H10V13H9V12.25Z" fill="#B1B7C3"/>
<path d="M2.75 10.75H4.25C4.38825 10.75 4.5 10.6382 4.5 10.5V9.25C4.5 9.11175 4.38825 9 4.25 9H2.75C2.61175 9 2.5 9.11175 2.5 9.25V10.5C2.5 10.6382 2.61175 10.75 2.75 10.75ZM3 9.5H4V10.25H3V9.5Z" fill="#B1B7C3"/>
<path d="M5.75 10.75H7.25C7.38825 10.75 7.5 10.6382 7.5 10.5V9.25C7.5 9.11175 7.38825 9 7.25 9H5.75C5.61175 9 5.5 9.11175 5.5 9.25V10.5C5.5 10.6382 5.61175 10.75 5.75 10.75ZM6 9.5H7V10.25H6V9.5Z" fill="#B1B7C3"/>
<path d="M8.75 10.75H10.25C10.3882 10.75 10.5 10.6382 10.5 10.5V9.25C10.5 9.11175 10.3882 9 10.25 9H8.75C8.61175 9 8.5 9.11175 8.5 9.25V10.5C8.5 10.6382 8.61175 10.75 8.75 10.75ZM9 9.5H10V10.25H9V9.5Z" fill="#B1B7C3"/>
<path d="M11.75 10.75H13.25C13.3882 10.75 13.5 10.6382 13.5 10.5V9.25C13.5 9.11175 13.3882 9 13.25 9H11.75C11.6118 9 11.5 9.11175 11.5 9.25V10.5C11.5 10.6382 11.6118 10.75 11.75 10.75ZM12 9.5H13V10.25H12V9.5Z" fill="#B1B7C3"/>
<path d="M2.75 8H4.25C4.38825 8 4.5 7.88825 4.5 7.75V6.5C4.5 6.36175 4.38825 6.25 4.25 6.25H2.75C2.61175 6.25 2.5 6.36175 2.5 6.5V7.75C2.5 7.88825 2.61175 8 2.75 8ZM3 6.75H4V7.5H3V6.75Z" fill="#B1B7C3"/>
<path d="M5.75 8H7.25C7.38825 8 7.5 7.88825 7.5 7.75V6.5C7.5 6.36175 7.38825 6.25 7.25 6.25H5.75C5.61175 6.25 5.5 6.36175 5.5 6.5V7.75C5.5 7.88825 5.61175 8 5.75 8ZM6 6.75H7V7.5H6V6.75Z" fill="#B1B7C3"/>
<path d="M8.75 8H10.25C10.3882 8 10.5 7.88825 10.5 7.75V6.5C10.5 6.36175 10.3882 6.25 10.25 6.25H8.75C8.61175 6.25 8.5 6.36175 8.5 6.5V7.75C8.5 7.88825 8.61175 8 8.75 8ZM9 6.75H10V7.5H9V6.75Z" fill="#B1B7C3"/>
<path d="M11.75 8H13.25C13.3882 8 13.5 7.88825 13.5 7.75V6.5C13.5 6.36175 13.3882 6.25 13.25 6.25H11.75C11.6118 6.25 11.5 6.36175 11.5 6.5V7.75C11.5 7.88825 11.6118 8 11.75 8ZM12 6.75H13V7.5H12V6.75Z" fill="#B1B7C3"/>
<path d="M15 1H13.25V0.75C13.25 0.33575 12.9142 0 12.5 0C12.0858 0 11.75 0.33575 11.75 0.75V1H4.25V0.75C4.25 0.33575 3.91425 0 3.5 0C3.08575 0 2.75 0.33575 2.75 0.75V1H1C0.44725 1 0 1.44725 0 2V15C0 15.5527 0.44725 16 1 16H15C15.5527 16 16 15.5527 16 15V2C16 1.44725 15.5527 1 15 1ZM12.25 0.75C12.25 0.61175 12.3618 0.5 12.5 0.5C12.6382 0.5 12.75 0.61175 12.75 0.75V1.5V2.5C12.75 2.63825 12.6382 2.75 12.5 2.75C12.3618 2.75 12.25 2.63825 12.25 2.5V1.5V0.75ZM3.25 0.75C3.25 0.61175 3.36175 0.5 3.5 0.5C3.63825 0.5 3.75 0.61175 3.75 0.75V1.5V2.5C3.75 2.63825 3.63825 2.75 3.5 2.75C3.36175 2.75 3.25 2.63825 3.25 2.5V1.5V0.75ZM15.5 15C15.5 15.276 15.276 15.5 15 15.5H1C0.724 15.5 0.5 15.276 0.5 15V4.25H15.5V15ZM15.5 3.75H0.5V2C0.5 1.724 0.724 1.5 1 1.5H2.75V2.5C2.75 2.91425 3.08575 3.25 3.5 3.25C3.91425 3.25 4.25 2.91425 4.25 2.5V1.5H11.75V2.5C11.75 2.91425 12.0858 3.25 12.5 3.25C12.9142 3.25 13.25 2.91425 13.25 2.5V1.5H15C15.276 1.5 15.5 1.724 15.5 2V3.75Z" fill="#B1B7C3"/>
</g>
<defs>
<clipPath id="clip0_314_4477">
<rect width="16" height="16" fill="white"/>
</clipPath>
</defs>
</svg>
