<svg width="16" height="16" viewBox="0 0 16 16" fill="none" xmlns="http://www.w3.org/2000/svg">
<g clip-path="url(#clip0_314_4493)">
<path fill-rule="evenodd" clip-rule="evenodd" d="M3.7921 15.5674C4.3693 15.3485 4.86143 15.0652 5.2491 14.7996C6.0993 15.1439 7.0283 15.3333 8.00016 15.3333C12.0502 15.3333 15.3335 12.05 15.3335 7.99996C15.3335 3.94987 12.0502 0.666626 8.00016 0.666626C3.9501 0.666626 0.666829 3.94987 0.666829 7.99996C0.666829 9.51916 1.1295 10.9322 1.92156 12.1034C1.97183 13.0718 1.46323 13.9468 0.935362 14.721C0.473029 15.3991 0.589028 15.9456 1.4511 15.9944C1.8375 16.0163 2.6733 15.9916 3.7921 15.5674ZM14.0002 7.99996C14.0002 4.68625 11.3139 1.99996 8.00016 1.99996C4.68643 1.99996 2.00016 4.68625 2.00016 7.99996C2.00016 9.30016 2.41296 10.502 3.11483 11.4841C3.42536 11.9188 3.26563 12.7332 3.1591 13.2007C3.0557 13.6545 2.83136 14.1367 2.60976 14.5415C2.8219 14.4904 3.05943 14.4192 3.31936 14.3206C3.91756 14.0938 4.4119 13.7749 4.76056 13.5073C4.95843 13.3554 5.2245 13.3268 5.45016 13.4329C6.22323 13.7964 7.08703 14 8.00016 14C11.3139 14 14.0002 11.3137 14.0002 7.99996ZM11.3335 8.99996C10.7812 8.99996 10.3335 8.55223 10.3335 7.99996C10.3335 7.44769 10.7812 6.99996 11.3335 6.99996C11.8858 6.99996 12.3335 7.44769 12.3335 7.99996C12.3335 8.55223 11.8858 8.99996 11.3335 8.99996ZM7.00016 7.99996C7.00016 8.55223 7.4479 8.99996 8.00016 8.99996C8.55243 8.99996 9.00016 8.55223 9.00016 7.99996C9.00016 7.44769 8.55243 6.99996 8.00016 6.99996C7.4479 6.99996 7.00016 7.44769 7.00016 7.99996ZM4.66683 8.99996C4.11456 8.99996 3.66683 8.55223 3.66683 7.99996C3.66683 7.44769 4.11456 6.99996 4.66683 6.99996C5.2191 6.99996 5.66683 7.44769 5.66683 7.99996C5.66683 8.55223 5.2191 8.99996 4.66683 8.99996Z" fill="#B1B7C3"/>
</g>
<defs>
<clipPath id="clip0_314_4493">
<rect width="16" height="16" fill="white" transform="matrix(-1 0 0 1 16 0)"/>
</clipPath>
</defs>
</svg>
