<svg width="200" height="200" viewBox="0 0 200 200" fill="none" xmlns="http://www.w3.org/2000/svg">
<path d="M161.67 78.203C126.54 72.3307 105.796 104.878 86.3936 128.555C76.784 140.237 64.1156 153.231 48.3885 154.48C33.0895 155.667 19.1977 144.36 16.873 128.93C14.5484 113.062 25.3203 96.3197 40.9251 94.883C60.3839 93.1334 66.2007 103.442 75.4993 111.563L86.2101 98.9434C86.1489 98.8812 86.1489 98.8812 86.1489 98.8812L87.5559 97.1316C71.8288 86.3867 70.4218 58.837 84.6195 46.1553C98.8173 33.4111 119.994 36.5972 132.846 49.5912C121.646 22.916 85.7206 21.854 67.7912 41.47C58.1204 51.9651 54.6335 66.1461 56.5911 79.4524C52.2476 78.0781 47.7768 77.3284 43.1886 77.6408C26.9721 78.5778 12.1014 88.5731 4.75526 103.379C-9.74837 132.928 10.6281 169.161 42.8215 171.348C76.8452 173.784 96.0644 141.611 115.217 118.559C124.949 106.815 137.924 94.4458 153.957 94.3831C169.317 94.3831 182.536 106.69 183.576 122.37C184.677 137.114 174.583 150.857 160.385 153.98C146.677 156.979 134.314 145.984 124.643 137.488L113.933 150.108C125.133 159.978 139.269 171.348 154.813 171.348C171.091 171.348 186.517 161.664 194.348 147.296C209.585 119.372 192.451 83.3257 161.67 78.203Z" fill="#60A5FA"/>
</svg>
