<svg width="46" height="33" viewBox="0 0 46 33" fill="none" xmlns="http://www.w3.org/2000/svg">
<path d="M37.184 11.5467C29.1042 10.1961 24.3332 17.682 19.8705 23.1277C17.6603 25.8144 14.7466 28.8031 11.1293 29.0905C7.61059 29.3635 4.41547 26.7629 3.8808 23.2138C3.34613 19.5642 5.82368 15.7135 9.41278 15.3831C13.8883 14.9807 15.2262 17.3516 17.3648 19.2195L19.8283 16.317C19.8142 16.3027 19.8143 16.3027 19.8143 16.3027L20.1379 15.9003C16.5206 13.4289 16.197 7.0925 19.4625 4.17571C22.728 1.24456 27.5986 1.97736 30.5546 4.96598C27.9785 -1.16932 19.7157 -1.41358 15.592 3.09809C13.3677 5.51198 12.5657 8.7736 13.0159 11.8341C12.017 11.518 10.9887 11.3455 9.93338 11.4174C6.20358 11.6329 2.78332 13.9318 1.09371 17.3371C-2.24213 24.1334 2.44445 32.4671 9.84895 32.97C17.6744 33.5303 22.0948 26.1306 26.5 20.8286C28.7383 18.1274 31.7224 15.2825 35.41 15.2681C38.9428 15.2681 41.9832 18.0987 42.2224 21.7051C42.4756 25.0961 40.154 28.2572 36.8886 28.9755C33.7356 29.6652 30.8923 27.1364 28.668 25.1823L26.2045 28.0847C28.7806 30.3549 32.032 32.97 35.607 32.97C39.3509 32.97 42.8989 30.7428 44.6999 27.4382C48.2046 21.0155 44.2637 12.7249 37.184 11.5467Z" fill="white"/>
</svg>
